<svg xmlns="http://www.w3.org/2000/svg" width="126.876" height="126.833" viewBox="0 0 126.876 126.833"><defs><style>.a{fill:#d20b12;}.b{fill:#fff;fill-rule:evenodd;}</style></defs><g transform="translate(-567.358 -1065.036)"><path class="a" d="M46.057,92.126a46.057,46.057,0,0,0,45.934-42.7c-.188.018-.379.029-.572.029a5.763,5.763,0,0,1-5.762-5.764c0-.048.006-.095.007-.143A6.989,6.989,0,0,1,76.756,33.4a6.987,6.987,0,0,1-4.014-11.9,6.991,6.991,0,0,1,.637-12.522A46.062,46.062,0,1,0,46.057,92.126Z" transform="matrix(-0.53, -0.848, 0.848, -0.53, 616.106, 1191.869)"/><g transform="matrix(-0.53, -0.848, 0.848, -0.53, 585.388, 1121.008)"><path class="a" d="M.8.628C2.212-.837,4.247.494,4.428,2.23c.226,2.188,1.523,3.434-.543,3.925-1.282.307-3.1.419-3.623-1.6C-.178,2.863-.107,1.582.8.628Z" transform="translate(0 22.479)"/><path class="a" d="M.333.432A1.357,1.357,0,0,1,1.68.065a.77.77,0,0,1,0,1.4C1,1.846.78,2.436.33,1.834.048,1.458-.245.881.333.432Z" transform="translate(12.668 24)"/><path class="a" d="M4.538,3.825C3.008,5.39,2.887,7.178,1.183,5.9.123,5.1.684,3.874.077,2.08-.48.427,2.119-.089,3.433.012,5.464.168,5.752,2.585,4.538,3.825Z" transform="translate(14.958 8.428)"/><path class="a" d="M2.413.008A1.534,1.534,0,0,1,3.19,2.692C2.113,3.788,2.029,5.045.828,4.145.086,3.584.479,2.723.055,1.464-.339.3,1.488-.062,2.413.008Z" transform="translate(3.011 0)"/><path class="a" d="M.246.727A1.3,1.3,0,0,1,2.624.844c.6,1.185,1.592,1.606.54,2.333C2.51,3.626,1.92,3.065.786,3.06-.261,3.053-.061,1.461.246.727Z" transform="translate(3.225 10.179)"/><path class="a" d="M1.618.011c1.31.16,2.2-.44,2.23.847.018.8-.773.979-1.4,1.923C1.873,3.655.658,2.6.218,1.935-.462.908.576-.116,1.618.011Z" transform="translate(8.889 33.821)"/><path class="a" d="M1.011.006c.821.1,1.38-.272,1.4.529.01.5-.485.613-.875,1.2-.36.548-1.121-.111-1.4-.529C-.29.568.361-.071,1.011.006Z" transform="translate(23.701 22.67)"/></g><path class="b" d="M625.8,1142.27l.066.121c.318.609.9,1.466,1.67,1.455.26,0,.369-.193.547-.265.023,0,.243.021.256,0a4.738,4.738,0,0,0,.556-.518l.084-.07a2.944,2.944,0,0,0,.689-.377c.283-.259.5-.541.789-.778a2.832,2.832,0,0,1,.663-.288,5.064,5.064,0,0,0,.538-.457.265.265,0,0,1,.021-.1l-.007-.023c-.075-.262-.559-.233-.761-.351-.105-.022-.665-.042-.813-.066h-.047c-.45,0-.833.122-1.259.122-.2,0-.216-.048-.3-.313a11.575,11.575,0,0,1-.418-2.12q-.042-.371-.069-.744a14.707,14.707,0,0,1,.106-2.238c.761-.287,1.588-.582,2.458-.885h.025c.228-.106.7-.319.722-.655a.084.084,0,0,0-.047-.05q-.29-.163-.572-.327l-.247,0c-.319.005-.688.087-1.019.09-.189,0-.344-.075-.528-.074-.253,0-.465.106-.686.106.035-.386.118-.75.162-1.113.007-.052.013-.1.019-.157l-.1-.1c.03-.234.062-.469.1-.7l-.063.131c.011-.078.023-.47.036-.549,0-.026.018-.263.022-.288l0-.026c0-.026.065-.263.069-.289,0-.009,0-.018,0-.026,0-.026-.005-.1,0-.131-.013-.052.022-.395.014-.473.017-.106.122-.819.131-.978.013-.071.026-.141.039-.212.022-.238-.018-.848.04-1.142.016-.079.125-.4.136-.454a6.441,6.441,0,0,1,1.814-.313c.326,0,.551.153.881.149.518-.005.812-.3,1.27-.492l-.088-.159.235,0c.065-.372-.914-.841-1.184-.866-.046,0-.619-.021-.823-.046h-.092c-.07,0-.451-.05-.521-.049h-.092l-.091,0c-.061,0-.122.006-.184.01q-.185.013-.371.036c-.249.031-.5.076-.753.128-.505.1-1.016.243-1.521.382h-.023a.167.167,0,0,1-.031-.08c-.02.108-.623.167-.758.3.012-.072.022-.144.034-.216-.416,0-.591,1.107-.677,1.452-.015.107-.09.532-.1.586-.205,1.629-.371,3.227-.463,4.8a29.194,29.194,0,0,0-.2,3.834c0,.82-.014,1.608.062,2.418q.041.432.1.867t.141.867a16.679,16.679,0,0,0,.408,1.7h0Zm2.744-15.05-.07-.105a.265.265,0,0,1,.208-.135,3.141,3.141,0,0,1-.227.694c.029-.151.059-.3.088-.453Zm-.355,9a1.882,1.882,0,0,0-.026.653c0,.067.006.134.01.2.008-.275.023-.475.018-.7,0-.05,0-.1,0-.151Zm.044,1.674c0-.025-.053-.1-.055-.124q.023.26.053.52c-.015-.123.011-.3,0-.4Zm.064-9.266a.044.044,0,0,1,.037.049v0h.023c.045,0,.02.132-.024.132s-.04-.026-.035-.052h-.022c-.022,0,0-.133.024-.133Zm.1,10.545c-.031-.048.051.414.061.341a.983.983,0,0,0-.061-.341Zm-.213-3.23c-.044,0-.043.126,0,.126.022,0,.022-.126,0-.126Zm.225-8.51c.046,0,.025.106-.021.107s-.024-.106.021-.107Zm.018,4.5c-.044,0-.058.1-.013.1s.058-.1.013-.1Zm-.121-.26c.044,0,.03.1-.015.1s-.03-.1.015-.1Zm.185,8.008c-.044,0-.03.073.015.073s.029-.073-.015-.073Zm-2.253,2.829c.021,0,.046.1.025.1-.042,0-.066-.1-.025-.1Zm2.467-2.08c-.044,0-.026.072.019.072.022,0,0-.072-.019-.072Zm-.32-13.106.056-.054-.026.134-.03-.08Zm-.232,10.17c-.044,0-.04.049,0,.05.022,0,.018-.05,0-.05Zm.112,1.088c-.047-.025-.04.025,0,.025.022,0,.019-.025,0-.025Zm-1.9,1.65h.019c0,.016.006.032.009.048h-.019c0-.017-.006-.032-.01-.049Zm1.962-11.554c0,.026-.014.08-.037.08.005-.026.015-.079.037-.08Zm3.825,5.793a9.778,9.778,0,0,0,1.189,5.818,2.418,2.418,0,0,0,.459.737.164.164,0,0,0,.069.07,4.237,4.237,0,0,0,3.048,1.883l.361-.006c.343-.17.784-.155,1.105-.375a3.62,3.62,0,0,1,.526-.372q.364-.215.741-.432c.117-.076.4-.256.285-.425l.08.047c.026,0,.1-.052.122-.053.131-.174.9-1,1.052-1.182a5.605,5.605,0,0,0,1.058-1.918.413.413,0,0,0-.05.079,2.8,2.8,0,0,1-.6,1.017c0-.017,0-.034,0-.051a5.012,5.012,0,0,0,.463-1.337,5.869,5.869,0,0,0,.268-1.155c0-.1-.053-.1-.054-.174.13-.009.156.015.154-.137,0-.026,0-.051,0-.076a.272.272,0,0,1-.1.133c0-.017,0-.034,0-.051,0-.151.127-.185.126-.337,0-.1-.027-.1-.029-.2l0-.1.115-1.25a.086.086,0,0,1-.052-.047v-.025c0-.051.051-.054.05-.1,0-.017,0-.034,0-.051s-.053-.124-.053-.149a.392.392,0,0,0,.05-.1l-.063-1.163a7.492,7.492,0,0,1-.144-1.513c-.056-.453-.241-1.51-.265-1.509l-.025,0c0-.017,0-.034,0-.051a1.06,1.06,0,0,0,.024-.128q-.093-.606-.182-1.212c-.026-.126-.249-.728-.4-.724,0,.025.025.075.025.1a4.284,4.284,0,0,0,.1.557v.051c-.247.009-.025-.611-.3-.6h-.024a.1.1,0,0,0-.05.053l0,.383c-.1-.073-.147-.276-.2-.377l-.322.011c-.024-.077-.073-.075-.148-.073a3.562,3.562,0,0,0-.7.3c0,.026.072.075.072.1l-.1.029-.147-.125v.052c0,.026.045.153.044.179v.026c-.049-.024-.195-.175-.27-.172h-.051c0,.026-.033.207-.11.235,0,0-.074-.049-.073-.075l-.05,0c-.076,0-.154.056-.255.059a1.3,1.3,0,0,0,.077.541c.02.1.1.719.094.848.025.025-.006.155-.007.181.083.564.229.969.294,1.583a16.29,16.29,0,0,1,.1,2.4,17.846,17.846,0,0,1-.918,5.655c-.124.4-.247.478-.345.776l-.024.025c-.105,0-.117-.094-.149-.141a7.032,7.032,0,0,1-.635-.641q-.5-.979-.962-1.974a6.064,6.064,0,0,1-.149-.8c-.087-.394-.281-2.368-.283-2.756-.016-.06-.033-.119-.049-.178,0,.154-.009.308-.013.462a7.236,7.236,0,0,0,.1,1.7,6.452,6.452,0,0,1,.2,1.151q-.17-.383-.333-.768c-.041-.274-.183-1.436-.174-1.667s.009-.46.016-.691a16.975,16.975,0,0,1,.2-1.936,5.052,5.052,0,0,0,.207-1.042c.176-.922.363-1.848.55-2.775q.025-.261.05-.523c.013-.043.025-.088.037-.131,0,.026-.055.053-.082.08h-.025c-.1,0-.046-.286-.046-.286.026-.262.146-.474.171-.736-.049,0-.122,0-.13.081l-.111-.1c.043.287-.194.449-.3.713.005-.044.01-.088.015-.131.017-.158.08-.29.1-.448a.282.282,0,0,0-.025-.209,2.569,2.569,0,0,1-.265.188H636.1l-.06-.1h-.049c-.025,0-.183.108-.208.109-.073,0-.147-.182-.244-.18h-.024a1.294,1.294,0,0,1-.274.241c-.181.081-.441.033-.545.245.036-.08,0-.158-.074-.158-.1,0-.048.16-.121.161h-.024c-.025,0-.041-.052-.061-.078l-.19.135a.092.092,0,0,0-.06-.078c-.485.007-.711,1.252-.854,1.544-.42,1.641-.815,3.272-1.1,4.876-.018.25-.033.5-.046.747h0Zm.123.151a3.08,3.08,0,0,1-.022.665,2.655,2.655,0,0,1,.022-.665Zm-.027,1.579c0-.118,0-.236,0-.355a2.045,2.045,0,0,1,.054.354c0,.008,0,.017,0,.025l-.053-.024Zm9.741-5.1.051-.054.027.3h-.025l-.053-.251Zm-5.933,2.029c-.026-.025-.041.284-.011.231.056-.028.064-.208.011-.231Zm5.222-4.262c0-.026.05-.053.1-.055a.41.41,0,0,1-.075.156c0-.026-.025-.05-.024-.076v-.026Zm-5.249,4.879c-.055,0-.059.13,0,.129s.06-.13,0-.129Zm6.309-.686c.051,0,.053.124,0,.127s-.053-.125,0-.128Zm-8.576,7.606c.052,0,.08.118.029.119s-.08-.118-.029-.119Zm8.418-7.977c.051,0,.053.124,0,.127s-.052-.124,0-.127Zm-4.835,8.973c.051,0,.074.119.023.12s-.075-.118-.023-.12Zm3.635-13.193c.049,0,.049.126,0,.128s-.049-.126,0-.128Zm.7.841.05,0c0,.051,0,.1,0,.153l-.05,0c0-.051,0-.1,0-.153Zm-.076-.43v-.05c.05.023.05.1.05.15v.051c-.05-.049-.05-.075-.05-.151Zm.385,1.763c.051,0,.051.073.051.125l-.051,0c0-.043,0-.085,0-.128Zm-1.314.907c.052,0,.052.1,0,.1s-.052-.1,0-.1Zm1.261-1.108c.051,0,.052.1,0,.1s-.051-.1,0-.1Zm-2.632-.6c.052,0,.049.1,0,.1s-.048-.1,0-.1Zm-7,6.637c.052,0,.055.1,0,.1s-.056-.1,0-.1Zm7.769-1.378c.054,0,.055.1,0,.1s-.055-.1,0-.1Zm2.1-2.968c.052,0,.053.1,0,.1s-.052-.1,0-.1Zm-9.494,2.225c.053,0,.049.076,0,.076a.037.037,0,0,1-.037-.039.039.039,0,0,1,.039-.038Zm.3-.6c.053,0,.047.076-.005.077s-.047-.076.005-.077Zm6.35-1.044c-.054,0-.056.1,0,.1.026,0,.028-.1,0-.1Zm2.449-2.977c.05,0,.051.074,0,.1-.026,0-.026-.1,0-.1Zm-5.518-2.076c.025,0,.016.078-.008.079-.075,0-.066-.077.008-.079Zm-4.011,7.777a.157.157,0,0,1,0,.153c-.026.026-.024-.152,0-.153Zm5.565,5.094,0,.024-.1-.192a.556.556,0,0,1,.1.168Zm-4.563-8.906c.052,0,.043.077-.008.078-.026,0-.017-.078.008-.078Zm8.4-2.495c.024,0,.025.075,0,.077a.038.038,0,0,1-.038-.038.038.038,0,0,1,.038-.039Zm-6.281-1.453c.025,0,.015.078-.011.078-.049,0-.039-.078.011-.078Zm3.948,5.676a.038.038,0,1,0-.005.076h0c.028,0,.028-.077,0-.076Zm0-.256c-.027-.024-.029.155,0,.128a.111.111,0,0,0,0-.128Zm-3.186-.463c-.027,0-.032.079,0,.078.056-.027.057-.054,0-.078Zm5.8-2.3c.025,0,.026.049,0,.051-.05.027-.05-.048,0-.051Zm-2.618,3.423c-.027-.024-.028.129,0,.1s.029-.1,0-.1Zm2.8-2.137c0,.026-.051.028-.051,0,0-.051.051-.054.051,0Zm.057.682c.051.022.052.047,0,.05-.025.027-.026-.049,0-.05Zm-2.2-3.884a.047.047,0,0,1-.075,0c0-.026.076-.028.075,0Zm-.671,6.866c-.028-.024-.028.051,0,.05s.027-.052,0-.05Zm-5.618,5.3c.032.024.037.048.012.048s-.037-.048-.012-.048Zm8.187-10.532c.026.025.026.05,0,.051s-.025-.049,0-.051Zm16.375,6.678a6.537,6.537,0,0,0,.8,3.889c.065.122.2.192.283.313a.061.061,0,0,1,.034.017c.1.088.352.282.352.282.017,0,.323.041.441.06h.052c.085,0,.495-.005.58-.021.258-.1.581-.037.822-.135.276-.113.535-.261.827-.374a.235.235,0,0,0,.068-.032,1.791,1.791,0,0,0,.2-.729l-.136,0,.009-.443c-.033-.035-.031-.138-.03-.2-.085,0-.19.114-.241.113l-.017-.018a.175.175,0,0,1-.051-.018.134.134,0,0,1-.05-.035l-.086.032h-.051c0-.052.019-.085.02-.119-.307-.006-.3-.126-.44-.129h-.017v.017c-.035.067-.158.218-.243.216h-.018a.7.7,0,0,0-.031-.1h-.034a.239.239,0,0,0-.069.032v-.034l.036-.085v-.05h-.034a.142.142,0,0,1-.052.05.075.075,0,0,1-.049-.053,15.675,15.675,0,0,1-.25-1.8.048.048,0,0,0-.035.051,8.289,8.289,0,0,0,.231,1.847v.034a.06.06,0,0,0-.035.034,1.007,1.007,0,0,1-.16-.5l-.119-.787c-.014-.12-.036-.666-.034-.785a8.576,8.576,0,0,1,.021-.938.259.259,0,0,1-.03-.154,4.111,4.111,0,0,1,.1-.7c-.025-.427.172-.833.182-1.276,0-.068-.032-.069-.03-.154h.051a1.548,1.548,0,0,1,.038-.187l0-.1-.068.015v-.017c0-.085.038-.152.039-.238h-.016c.008-.392.307-.76.315-1.136v-.017c-.086.032-.088.134-.106.185v-.051h-.034a1.525,1.525,0,0,0-.212.3.321.321,0,0,1-.054.135l-.016-.035a.016.016,0,0,1,.017-.016h0a4.775,4.775,0,0,1,1.114-1.75h.017a.11.11,0,0,1,.1.036,1.014,1.014,0,0,1,.027.308,2.588,2.588,0,0,1-.226.95v.034l.069-.05v.034c-.007.307-.444.775-.447.945a.172.172,0,0,0,.015.052l.017.034a.631.631,0,0,1,.064.189l.068,0,0,.17a.249.249,0,0,0,.069-.05h.034c0,.017.032.069.032.087l.221,0c.017,0,.1-.083.139-.1.172-.064.375-.008.566-.158.122-.1.142-.253.3-.352l.017-.034a2.745,2.745,0,0,0,.462-1.575,1.24,1.24,0,0,0-.808-1.229c-.288-.075-.561-.064-.815-.155-.068-.018-.134-.088-.2-.09l-.069.033s-.169-.038-.186-.039a.75.75,0,0,0-.085-.018,1.685,1.685,0,0,0-1.175.707l-.542.6c-.216.49-.567.943-.766,1.45-.09.236-.063.561-.222.779l-.033-.035a.268.268,0,0,1-.04.256l0,.033c0,.018-.018.085-.019.1a.143.143,0,0,0-.052.033c-.021.188.01.291-.095.442a.062.062,0,0,0-.019.05h.034c0,.12-.091.271-.095.425v.017l.033.035v.017c-.005.239-.115.543-.12.8h.033a1.1,1.1,0,0,1-.075.305Zm.5-3.3c-.034,0-.037.084,0,.085s.036-.084,0-.085Zm2.872-3.381c-.034,0-.036.067,0,.069a.034.034,0,0,0,.038-.03.034.034,0,0,0-.029-.038Zm-2.053,7.185h.051v.052h-.052Zm1.29-.5a.079.079,0,0,0,0,.085c.034,0,.036-.085,0-.085Zm.239-3.082c-.034,0-.035.068,0,.068a.052.052,0,0,0,0-.068Zm.286,5.515c-.016,0-.018.067,0,.068.034,0,.035-.068,0-.068Zm-1.761,1.768h.051v.051a.073.073,0,0,1-.049-.052Zm1.232-4.015,0,.2a.412.412,0,0,0,0-.2Zm1.07-4.41c-.017,0-.018.05,0,.05a.026.026,0,0,0,.022-.029.027.027,0,0,0-.021-.021Zm-3.1.732c-.016-.018-.051.016-.035.033s.052-.016.035-.033Zm2.044,3.183c-.017,0-.018.051,0,.051a.026.026,0,0,0,.009-.051Zm-.017.785c-.018,0-.018.051,0,.051a.026.026,0,0,0,.009-.051Zm-1.206-3.284c.034,0,.034.035,0,.05-.017.017-.016-.068,0-.05Zm1.478-1.246c.017,0,.016.052,0,.068-.017,0-.015-.085,0-.068Zm.787-.085-.036.067.035-.033Zm-.218-2.478c0-.017-.034-.018-.017,0,0,.017.017.017.018,0Zm-.7,3.838c.017,0,.017.018,0,.018s-.016-.035,0-.018Zm3.828,7.845a.574.574,0,0,1-.02.1c0,.051.033.052.136.054a3.885,3.885,0,0,0,1.13-.247c.189-.064.212-.3.226-.2.016.035.014.137.065.138.2,0,.057-.254.193-.251a.36.36,0,0,0,.067.019c.227-.217.195-.319.3-.419a6.736,6.736,0,0,1,2.331-1.278,1.839,1.839,0,0,1,.416-.3c.265-.421-1.118-.366-1.323-.337a1.284,1.284,0,0,1-.136-.019c-.29-.007-.995.285-1.439.309a.123.123,0,0,0,.035-.067l-.085,0c-.051-.769-.05-1.588-.033-2.354.246-.319,1.373-.379,1.779-.967-.083-.087-.267-.279-.421-.282-.2,0-.41.059-.6.055-.1,0-.169-.055-.271-.058-.188,0-.36.077-.53.073a6.436,6.436,0,0,1-.1-.957l-.067-.052a2,2,0,0,0-.057-.513.233.233,0,0,0-.036.067.017.017,0,0,1-.017-.016h0c0-.051.019-.051.02-.119a3.016,3.016,0,0,1-.115-.992,4.087,4.087,0,0,0-.174-1.351l0,.12-.086,0c0-.1-.095-.309-.075-.41a3.5,3.5,0,0,1,.516-.21c.275-.113.572-.43.9-.423.171,0,.268.228.524.233a1.784,1.784,0,0,0,.737-.171,2.141,2.141,0,0,0,.349-.316l-.2-.209c.005-.239-1.134-.4-1.168-.4-.1,0-.479.023-.512.023a.254.254,0,0,0-.152-.072c0,.034-.172.03-.206.03s-.05-.036-.1-.037c-.818-.018-1.327.6-1.889.589-.034,0-.033-.035-.085-.035-.067,0-.136.031-.188.03-.1,0-.2-.09-.271-.074-.138.082-.144.321-.147.474v.034c-.024,1.039.123,2.083.1,3.105l-.009.359.116,3.208-.005.256c-.023,1.006.125,2.033.1,3.038,0,.017-.036.085-.036.1.016.017.033.052.05.035,0,.051-.052.05-.053.084a2.462,2.462,0,0,0,.413.624c.017,0,.086-.016.1-.015Zm1.188-9.677a.1.1,0,0,1,.036-.085c.052,0,.031.155.029.205-.051,0-.066-.07-.065-.121Zm1.157,8.535h.017c-.017.016-.035.05-.052.033,0-.018.018-.051.035-.034Zm-1.1-7.886h.034v.034h-.034Zm2.593,6.846.016.052h-.017Zm-21.238,2.28c.488,0,.066,1.466.88,1.474.244,0,.17-.65.416-.81.08.164.4.655.726.659.164-.161.085-.406.249-.486a2.026,2.026,0,0,1,.32.574c.249-.4.571-.157.9-.236.163,0,.577-.645.578-.727l.244,0,.085-.325c0-.081.082-.081.163-.08l.242.165.081.082.082-.081c.081,0,.411-.4.412-.484,0,0,.161.165.242.165h.082l.006-.652.082-.08a.833.833,0,0,1,.244.083h.081l0-.244a2.363,2.363,0,0,1,1-1.781,40.84,40.84,0,0,1,.384-5.613c0-.081.166-.324.167-.406,0-.325.6-2.925.6-3.25a19.4,19.4,0,0,1,1.588-3.973c1.829-3.726,5.851-6.778,5.979-11.336.085-.406.021-2.035.025-2.442l.162,0a1.63,1.63,0,0,1,.158.49,4.5,4.5,0,0,1,.148,1.467c-.04,3.908-3.085,6.97-5.068,9.88a21.767,21.767,0,0,0-3.541,11.768,23.208,23.208,0,0,1,2.625-9.823c2.24-3.966,6.017-7.1,6.068-12.068l.011-1.058c-.462-2.61-3.62-4.271-5.647-5.024a18.075,18.075,0,0,0-2.513-1.085l-4.062-.855h-.081s-.164.161-.246.16c-.245.078-1.792.145-2.119.222l-.732-.007s0,.082-.328.241l-1.47.473c-.654.238-2.862,1.192-3.193,1.758l.163,0c.732.008,1.4-1.125,2.21-1.117l.08.083c-.331.485-.982.479-1.474.8-.409.241-.414.647-.9.642-.081,0-.325,0-.241-.247a8.217,8.217,0,0,0-1.314,1.045c-.246.242-.9.8-.9.8h-.081c.083-.161.084-.243.248-.323a17.7,17.7,0,0,1,6.475-4.167l.328-.241a7.833,7.833,0,0,0-3.679,1.508,18.881,18.881,0,0,0-1.558,1.124c-.247.242-1.4,1.207-1.562,1.449a13.956,13.956,0,0,0-1.482,1.613c-.42,1.217-1.325,2.184-1.339,3.568v.082a19.782,19.782,0,0,1,4.54-6.059l.081.164a2.762,2.762,0,0,1-.494.484s-.246.16-.247.241a18.994,18.994,0,0,0-3.3,4.607c-.083.162-.335.892-.66.807l-.016,1.547.473,1.47c.325.085.647.413.891.416.163,0,.247-.241.409-.24h.081l.243.084.163,0,.245-.079s.487.086.569.088h.163c.163,0,.734-.074.9-.073,0-.081.166-.242.166-.242h.081c.081,0,.244,0,.243.084h.082c.244,0,.089-.732.335-.892l.244.085-.006.488h.081c.083-.081.168-.568.333-.648.162.083.16.328.322.329.57.005.579-.89.988-1.129.246-.161.162.083.328-.16.331-.567.336-1.055.747-1.458l.327-.16a13.247,13.247,0,0,1,.91-1.374l1.153-1.291.163,0,.081.082s.248-.323.329-.322l1.311-.72,1.148-.884a11.615,11.615,0,0,1,1.473-.635h.081a5.221,5.221,0,0,1,1.373,1.073c.242.246.158.49.155.816-.022,2.2-1.343,3.894-2.256,5.594-.413.647-.419,1.217-1.159,1.86l-2.4,3.72-.5,1.216c.154.9-.839,2.434-1.01,3.246-.256,1.056-.855,3.981-.857,4.143-.084.243-.266,2.114-.268,2.276s-.086.488-.088.651c0,.244-.1,1.383-.1,1.627-.005.488.064,1.71.064,1.71-.006.57.374,3.179.45,3.668.08.164.157.572.318.655,0,0,.165-.161.246-.16Zm2.46,33.692a9.324,9.324,0,0,1,1.033.945c.171-.6.472-.516.653-.92.305.185.125.589.421.576s.288-.211.486-.22c.1,0,.207.19.207.19l.189-.207a1.329,1.329,0,0,1,.508.275c-.005-.1.081-.4.279-.409l.1,0,.2.09.365-.71.1,0s.2.091.206.189l.558-.817.1,0a3.927,3.927,0,0,1,.314.382c.288-.211.261-.8.653-.92.1-.005.3.184.409.279.059-.894.463-.714.824-1.522.279-.409.15-1.1.842-1.127-.013-.3-.173-1.676-.186-1.973-.152-1.182-.39-4.342-.489-4.337l-.108-.194-1.294-.141a6.345,6.345,0,0,0-.228-.683.347.347,0,0,1-.2-.09l-.293.112-.2.009a1.25,1.25,0,0,1-.6-.073l-1.384.062a1.68,1.68,0,0,1-.5-.176c-.2.009-.607-.27-.8-.262l-.1,0a2.037,2.037,0,0,1-.584.224l-.086.3-.1.005c-.3.013-.323-.581-.327-.679l-.2.009c-.167.7-.459.813-1.152.844-.49.12-1.065.542-1.264.551-.395.018-.331-.777-.344-1.074l-.2.008.013.3c.052,1.186.481,6.418.629,7.5a21.034,21.034,0,0,0,1.172,4.108l.283-.309a.1.1,0,0,1,.09-.1Zm1.429-55.553v.163a9.251,9.251,0,0,1-1.324,2.1h-.082a7.123,7.123,0,0,1,1.407-2.265Zm7.094,46.656a12.5,12.5,0,0,0,.566,3.839l-.026-.593c-.148-1.083-.364-3.749-.364-3.749l-.21-.287Zm-12.255-59.329a.386.386,0,0,1,.409-.24c0,.244-.084.324-.247.323Zm.654-.238c.084-.162.164-.161.246-.16a.3.3,0,0,1-.084.244Zm4.837,12.506c.082,0,.079.246,0,.244a.122.122,0,0,1,0-.244Zm3.476,18.191c-.081,0-.084.244,0,.244s.084-.243,0-.244Zm7.029-26.305.08.082-.162,0Zm-13.372,52.43,0,.1.1,0,0-.1Zm.548-40.432h-.081C649.247,1123.456,649.328,1123.458,649.327,1123.539ZM649.2,1172.3c.07-.021.143.019.215.017.026,0,.052-.02.079-.021s.045.015.072.015c.134-.006.164-.123.261-.146a2.791,2.791,0,0,1,.135-.38l0-.035c0-.062-.083-.059-.128-.084a.291.291,0,0,0-.056-.051.615.615,0,0,1-.117-.039.758.758,0,0,0-.128-.057.45.45,0,0,0-.125-.013.094.094,0,0,0-.083-.04c-.026,0-.052.029-.088.03s-.01-.044-.037-.042h-.009a.091.091,0,0,0-.008.027c-.026,0-.044-.006-.062-.006-.133.006-.2.383-.193.463s.06.354.184.348c.027,0,.044-.01.071-.012S649.2,1172.268,649.2,1172.3Zm.8-.481c-.018,0-.017.027-.008.027h-.009c-.009,0-.007.027,0,.026a.017.017,0,0,0,.011-.022l0-.005H650C650,1171.84,650,1171.813,649.994,1171.814Zm.008-.028c-.009,0-.008.028,0,.027a.013.013,0,0,0,.013-.013.014.014,0,0,0-.014-.014Zm-.031.1a.273.273,0,0,1-.025.045v.018a.242.242,0,0,0,.024-.055Zm-.531.085h-.018c0-.018.017-.018.018,0Zm1.16-.024a.922.922,0,0,0,.144.448c.047.051.1.014.138.074l.018.017a.055.055,0,1,1,.084-.073.058.058,0,0,1,.014.033.658.658,0,0,0,.407-.268l.019.017a.813.813,0,0,0,.011-.143l0-.028c.044,0,.03.062.067.087l.025-.046c0-.026,0-.151,0-.187h.009c.035,0,.076.121.083.076l0-.107c.1-.013.021-.117.074-.164l0-.08c-.008-.195.027-.384.019-.579s-.062-.4-.089-.6c-.041-.319-.055-.639-.1-.958l-.058-.1.025-.028a3.378,3.378,0,0,0,.3.487c.106.165.247.328.352.5l.643,1.024a.989.989,0,0,0,.161.215c.105.147.248.364.315.477l.045-.011.062.006s.069-.057.078-.065a.1.1,0,0,0-.047-.061c.288-.146.146-.336.192-.3a3.375,3.375,0,0,0-.189-.438c-.018-.017-.077-.13-.1-.156l0-.071a8.09,8.09,0,0,0-.441-.712l-.6-.98a2.184,2.184,0,0,1-.144-.225l-.22-.339c0-.1.224-.17.293-.226a1.875,1.875,0,0,0,.888-1.483c-.02-.454-.708-.878-1.143-.859a.046.046,0,0,1-.028-.017l-.431-.061-.16.007a1.991,1.991,0,0,0-1,.258h-.018c-.035,0-.035.019-.07.021-.018,0-.036,0-.037-.017v-.008l-.214.009a.077.077,0,0,0-.034.046c.189,1.062.29,2.135.383,3.21,0,.089.017.177.021.266a2.641,2.641,0,0,0,.021.267.66.66,0,0,0,.027.221Zm.432-4.761.006.124h-.018a1.911,1.911,0,0,0-.065-.256l-.035,0-.058-.291a.183.183,0,0,1-.021-.062l-.052.029c0-.009-.013-.106-.014-.124v-.017c0-.107.349-.158.43-.162l.187-.008c.222-.01.878.1.892.406l0,.071h.036c.024.543-.524,1.057-.885,1.367-.034.028-.068.083-.121.085h-.009a.423.423,0,0,0-.022-.1c-.073-.238-.086-.513-.151-.769l-.038-.052a.654.654,0,0,0-.064-.246Zm-.03,5.162a.044.044,0,0,1,.011.035c0,.009,0,.027-.008.027s-.01-.008-.01-.026,0-.035.007-.036Zm.15-.024c.009,0,.01.008.01.017s0,.018-.008.019a.02.02,0,0,1-.019-.018.019.019,0,0,1,.017-.018Zm1.165-5.917a.028.028,0,0,1,.009.017.031.031,0,0,1-.008.018.018.018,0,0,1-.018-.017.018.018,0,0,1,.017-.018Zm-1.2,1.123c.008,0,.009.008.009.017a.008.008,0,0,1-.007.009h0a.033.033,0,0,1-.017-.008.018.018,0,0,1,.017-.018Zm.586-1.274c.008,0,.009.008.01.018a.009.009,0,0,1-.008.009h0a.032.032,0,0,1-.018-.009.019.019,0,0,1,.017-.018Zm.024,2.156c.009,0,.01.008.01.017s0,.018-.008.018-.01-.009-.01-.018,0-.017.008-.018Zm.21,1.328c.009,0,.01.008.01.017s0,.018-.008.018-.01-.008-.01-.018,0-.017.008-.017Zm1.373,2.212.01.008a.009.009,0,0,1-.008.01H653.3c0-.009,0-.017.008-.018Zm-.108-1.039v.027a.009.009,0,0,1-.009-.008h0c0-.009,0-.018.009-.019Zm1.753,1.179c.089-.013.215.027.3.023a1.79,1.79,0,0,0,1.528-.718,2.119,2.119,0,0,0,.2-.464,1.391,1.391,0,0,0,.142-.63c0,.01.018.008.018,0a.129.129,0,0,0,.016-.036,1.046,1.046,0,0,0,.021-.126l.078-.672,0-.036-.022-.1.005.117c-.054-.007-.036.2-.07.235,0-.009.008-.027.007-.037a2.085,2.085,0,0,1,.015-.482l-.023-.507a.033.033,0,0,0,.007-.027l-.027-.008c0-.035-.029-.248-.021-.284l-.22-.943a.213.213,0,0,0-.06-.158l.012.062s-.027,0-.027-.008a.3.3,0,0,0-.048-.087l-.109-.245c-.03-.06-.083-.058-.095-.12l-.057-.087c-.02-.053-.1-.076-.13-.119a.419.419,0,0,0-.095-.13,3.151,3.151,0,0,0-.413-.285c-.046-.015-.291-.094-.283-.13-.009-.008,0-.027.026-.019a1.08,1.08,0,0,0-.485-.086c-.019-.017-.124.005-.134.006l-.018-.017a1.554,1.554,0,0,0-.171-.02l-.071,0c-.275.011-.346.22-.463.421a3.365,3.365,0,0,0-.2.357l-.138.309c-.04.092-.046.18-.086.262a7.253,7.253,0,0,0-.295,1.208l-.025.224-.043.857.008.178a3.057,3.057,0,0,0,.686,1.8,1.556,1.556,0,0,1,.214.2l.019.026A2.509,2.509,0,0,0,654.955,1172.093Zm-.167-1.757a.038.038,0,0,0-.009-.017.046.046,0,0,0-.035.019c0-.017.006-.063.006-.071s-.02-.035-.019-.044a1.972,1.972,0,0,1-.094-.5c-.007-.152-.012-.294-.02-.445v-.01a.03.03,0,0,1-.018-.008l0,.063a.825.825,0,0,1-.033-.141l.025-.251a7.894,7.894,0,0,1,.263-1.527v-.008h-.027l-.048.128-.028-.017a.134.134,0,0,1-.032.082.019.019,0,0,1-.017.018l0-.026a.636.636,0,0,1,.055-.172c.017-.027.07-.235.086-.263a2.3,2.3,0,0,1,.36-.729,1.8,1.8,0,0,1,.88,1.352c.024.141.113.556.125.618a1.3,1.3,0,0,0,.008.187l.01.24a1.286,1.286,0,0,1,.012.267c0,.053.021.079,0,.125l-.026.429a.762.762,0,0,0-.058.314c0,.009-.008.028-.007.036-.067.279-.352,1.5-.728,1.476a.765.765,0,0,1-.168-.171,2.918,2.918,0,0,1-.451-.916c0-.009-.01-.026-.01-.035Zm2.371-.621.029.051a1.436,1.436,0,0,1-.027.2c-.065.154-.009-.205,0-.249Zm-.436-2.816c0,.018.026.186.053.185h.027a.338.338,0,0,0-.072-.193l-.009-.008Zm-2.133,2.75.017.177-.027-.008a1.05,1.05,0,0,1,.011-.17Zm2.214-2.54a.227.227,0,0,0,.04.105v-.017C656.841,1167.17,656.839,1167.108,656.8,1167.109Zm-2.182,1.87a.1.1,0,0,0-.015.073l.012.052a.4.4,0,0,0,0-.107Zm1.986-2.28a.04.04,0,0,0,.036.043h0A.041.041,0,0,0,656.607,1166.7Zm.562,1.624a.111.111,0,0,0,.02.043l.009-.009a.042.042,0,0,0-.029-.044Zm-2.72,1.376a.056.056,0,0,1,0,.054C654.433,1169.764,654.431,1169.7,654.448,1169.7Zm1.83.053c.008,0,.019.035.011.035-.027,0-.038-.042-.011-.035Zm-1.622-1.006c-.018,0-.025.046-.007.045s.016-.046.007-.045Zm.7,2.75c.018,0,.028.035.01.035s-.028-.034-.01-.035Zm1.72-1c.018,0,.029.035.011.035s-.028-.034-.011-.035Zm-2.428-2.718c.026,0,.019.035,0,.035s-.01-.035,0-.035Zm.005,1.746a.152.152,0,0,0,0,.089.154.154,0,0,0,0-.089Zm1.962-2.6c.018,0,.02.035,0,.036s-.019-.035,0-.036Zm-2.051,2.408c.018,0,.02.044,0,.045a.041.041,0,0,1,0-.045Zm1.692.362c.019.008.019.035-.008.027S656.24,1169.693,656.258,1169.692Zm.62-2.309,0-.036a.081.081,0,0,1,.01.045l0,.027a.022.022,0,0,1-.015-.027Zm.287.852a.014.014,0,0,0-.014.014.014.014,0,0,0,.014.013.014.014,0,0,0,.013-.014.014.014,0,0,0-.014-.013Zm-.109,2.359a.012.012,0,0,1,.013.012.015.015,0,0,1-.013.014.013.013,0,0,1-.013-.013.013.013,0,0,1,.013-.013Zm-2.387-.769c-.018,0-.007.036.009.035s0-.035-.009-.035Zm.115.583,0-.027c.01.018.02.027.011.036a.027.027,0,0,0,0,.026.022.022,0,0,1-.015-.027l0-.008Zm-.164-.492a.028.028,0,0,1,0,.036c-.019-.009-.02-.044,0-.036Zm-.016-.757,0,.044a.03.03,0,0,0,.017-.027.02.02,0,0,0-.019-.017Zm.153-1.566c.01,0,.011.036,0,.035s-.019-.035,0-.035Zm2.472,1.059c-.009,0-.008.027,0,.027.026,0,.026-.028,0-.027Zm-.076,1.714c-.008,0-.007.036,0,.035s.015-.035,0-.035Zm-2.526-2.5h.018l0,.026h-.018Zm2.609,1.347v.044a.121.121,0,0,0,.017-.037Zm.014-.09,0,.044a.12.12,0,0,0,.016-.036.029.029,0,0,0-.018-.009Zm-.574-2.1c.008,0,.01.026,0,.026a.013.013,0,0,1-.013-.013.013.013,0,0,1,.013-.013Zm-1.988.622a.014.014,0,0,1,.014.013.013.013,0,0,1-.012.014c-.01,0-.01-.026,0-.027Zm-.225,1.151c.009,0,.01.027,0,.027a.014.014,0,0,1-.015-.012.014.014,0,0,1,.013-.015Zm1.362,2.775v.018a.029.029,0,0,1-.017.018H655.8Zm-1.2-3.646v.036C654.6,1167.956,654.6,1167.92,654.619,1167.919Zm2.109-.672.029.034h-.018Zm-2.08,1.955c-.009,0,0,.026.01.026a.017.017,0,0,0,0-.024l-.005,0Zm2.326-1.03c.017,0,.028.016.01.017s-.019-.017-.01-.017Zm-.182.32c.018,0,.028.017.01.017s-.018-.017-.01-.017Zm-2.068-.827c.018.017.018.026.01.026s-.02-.026-.01-.026Zm-.032,2.31c-.009,0,0,.026.01.026s0-.018-.01-.026Zm-.113-.548c.009,0,0,.027-.008.028s0-.036.008-.028Zm2.589.893c-.009-.009-.008.017,0,.017s.007-.017,0-.017Zm-2.452-.222c-.008,0-.008.028,0,.027a.018.018,0,0,0,0-.025l0,0Zm2.271-2.676c-.008,0-.007.027,0,.026a.015.015,0,0,0,0-.022.007.007,0,0,0-.006,0Zm.251,1.629v.018h.018Zm-.591-2.282v.027h.009a.034.034,0,0,0-.01-.026Zm.433,1.122.018.017v-.017Zm-.395-1.062v.018h.018Zm.434,1.148v.036l.009-.018Zm-.556,2.948c.008,0,.009.017,0,.018S656.552,1170.918,656.562,1170.926Zm-1.861-3.18c.008,0,.009.018,0,.018s-.01-.026,0-.018Zm2.306.549c.008,0,.01.017,0,.017s-.01-.017,0-.017Zm-2.625,2.737c.009,0,.01.008,0,.017s-.01-.026,0-.017Zm.26-3.2c.008,0,.009.009,0,.009s-.019-.018,0-.009Zm-.177,2.049c.008,0,.009.018,0,.018Zm2.171-2.922c.008,0,.018.009.009.009s-.019-.008-.009-.009Zm-1.048-.319v.018C655.58,1166.656,655.578,1166.629,655.588,1166.637Zm1.661,2.28c-.01-.009-.009.009,0,.008s.008-.009,0-.008Zm-35.73-7.405c.252.05.152.376.332.559.084.018-.011-.146.094-.124a.284.284,0,0,1,.178.162,1.194,1.194,0,0,1,.341-.139c.063.013.11.086.173.1.779.166,1.251-.717,1.23-.723.042.005.105.015.11.083l0,.045c.066-.213.348-.332.312-.811l.126.015c0,.045.006.091.01.137,0-.022.037-.063.033-.109a25.464,25.464,0,0,0-.115-4.649,19.6,19.6,0,0,1-.042-2.363,6.639,6.639,0,0,1-.005-1.286q-.043-.627-.083-1.246c.333-.024,1.587,2.887,2.3,3.9.048.088.088.066.15.065a1.11,1.11,0,0,0,.9-1.054c0-.021,0-.043,0-.065.623-.611.519-1.621,1.066-2.226.275-.642.4-1.366.725-1.979a.208.208,0,0,1,.047.1c.456,3.122.985,6.588,1.592,10.717a6.912,6.912,0,0,0,.652,1.513c-.006-.073-.011-.147-.016-.219.125.008.12.227.245.234a.341.341,0,0,0,.31-.284c.021,0,.064.031.085.032.54.029.731-1.014.794-1.009-.019.027.045.056.089.085-.021-.274-.041-.547-.061-.816a.729.729,0,0,1,.1-.025l.094.163-.079-1.067c-.216-1.441-.421-2.791-.614-4.067a1.532,1.532,0,0,1-.091-.44c0-.07.01-.162,0-.254-.148-.914-.289-1.789-.425-2.632-.006-.08-.352-1.98-.356-2.122l-.043-.038q.021.467.045.946l-.039.042-.043-.039c-.094-.6-.311-2.192-.551-3.166-.028-.2-.5-.436-.505-.694,0-.092.08-.113.078-.2-.021,0-.147-.016-.171-.07,0-.012,0-.024,0-.037,0-.091-.61-.009-.615-.156,0-.006,0-.012,0-.018-.02.037-.083.037-.146.038l-.232,0-.087-.092c-.143.131-.222.28-.364.412l-.132-.128c0,.037.025.112.028.186a9.646,9.646,0,0,1-1.078,2.219c-.228.479-.611,1.485-.662,1.673,0-.054-.006-.109-.009-.163q.176-.558.357-1.1c-.162.1-.212.73-.432.881l.044.039c-.08.064-.02.388-.179.517q-.006-.1-.012-.2c-.152.251-.127.684-.365.88l-.044-.04a15.388,15.388,0,0,0-1.667-2.677c-.112-.118-.285-.194-.376-.312-.584-.608-.711-.963-1.939-.951,0,0-.146.042-.167.043-.023-.02-.092-.1-.09-.08-.127,0-.415.126-.5.126-1.07-.078-.759,3.821-.745,4.564.07,2.349.016,4.673.194,7.027,0,.041.07.375.074.436.02.267-.011.406.02.816.027.369.119.75.146,1.121Zm3.035-4.314,0-.022a7.072,7.072,0,0,0,.033,1.021,7.808,7.808,0,0,0,.118,1.039c-.007-.091-.021-.565-.056-1.036-.031-.426-.084-.87-.094-1Zm3.567-9.207a4.278,4.278,0,0,0-.525,1.273,9.016,9.016,0,0,0,.526-1.234l0-.039Zm-3.61,8.022a2.425,2.425,0,0,0,.045.635c0-.044.008-.175,0-.307s-.04-.262-.044-.328Zm-.014-.76c-.022-.021-.013.108-.005.216s.014.2.035.2a1.7,1.7,0,0,0,.006-.2c-.005-.086-.033-.173-.036-.216Zm.192,4.614c-.021,0-.014.09-.01.158.009.114.016.205.035.185s.013-.09.008-.159a.52.52,0,0,0-.034-.185Zm-.129-3.154c-.061.021-.056.087-.053.131.008.022.017.044.025.067.058-.065.033-.131.028-.2Zm7.061-7.569c0,.085.007.17.011.255a.807.807,0,0,1,.034-.178.066.066,0,0,0-.045-.077Zm-2.122-3.009a.042.042,0,0,0-.041.037.044.044,0,0,0,.044.036.042.042,0,0,0,.041-.037.044.044,0,0,0-.043-.036Zm2.067,2.7c-.021,0-.02.02-.019.059,0,.02,0,.039.023.039s.02-.02.019-.039a.068.068,0,0,0-.023-.058Zm-6.848,11.444c-.021,0-.019.021-.016.068,0,.022,0,.045.025.047s.019-.021.017-.044a.106.106,0,0,0-.026-.072Zm4.888-14.071a.041.041,0,0,0-.041.037.044.044,0,0,0,.043.036.061.061,0,0,0,.02-.037.07.07,0,0,0-.023-.036Zm-8.4,6.93a.069.069,0,0,1-.018.042c-.021,0-.022-.021-.024-.041Zm5.914-2.339a.02.02,0,0,1-.019.021h0a.022.022,0,0,1-.022-.02h0a.02.02,0,0,1,.018-.021h0l.022.02Zm-2.64,3c-.021,0-.041,0-.04.021h.062a.022.022,0,0,0-.022-.02Zm-.69,7.316c.009.023.018.047.026.07l-.021,0-.005-.068Zm3.226-10.677a.019.019,0,0,0-.02.02h.042a.021.021,0,0,0-.022-.02Zm7.063,10.15q.027.358.054.723a2.381,2.381,0,0,0,.445,1.5c0,.029.108.063.129.064.089.092.161.213.307.22l.062,0a.781.781,0,0,1,.137-.112,4.54,4.54,0,0,1,.574-.067.107.107,0,0,0,.016-.059c.108-.2.3-.168.348-.315.021,0-.048-.09-.05-.119.208,0,.069.09.152.092-.007-.089-.013-.178-.02-.266.021,0,.081-.027.079-.057h.021a.14.14,0,0,0-.025-.06s-.028-.088-.048-.088h.083l.064.03c.27.005.282-.377.281-.667h.062c-.025-.608.035-1.174.034-1.757-.012-.719,0-1.391.018-2.045.07-.184.839-.417,1-.5.1-.056.338-.194.338-.194l0-.077c.02,0,.039-.028.06-.028.2-.111.139-.083.123-.313.021,0,.059-.054.061-.028a.675.675,0,0,1,.029.126c.05.142.39,1.443.425,1.641,0,.027.03.134.032.162q.215.959.436,1.978a7.849,7.849,0,0,1,.284,1.289,5.682,5.682,0,0,1,.3.907.041.041,0,0,0,.043.03c.062,0,.143-.032.089-.185a.257.257,0,0,1,.074.153c.078.215.293.306.259.4.124,0,.171-.189.157-.374.005.061.028.092.048.092a.11.11,0,0,0,.046.06c-.009-.114-.017-.226-.026-.339.023.03.11.09.129.059.021,0,.092-.156.11-.187,0,0,.064.029.062,0,.163-.035.126-.249.195-.433.053-.123.068.089.092-.155,0-.061.016-.333.009-.422.089.087.133-.155.126-.244-.025-.327-.13-.619-.155-.966,0-.039-.006-.077-.009-.115a.477.477,0,0,1,.148.314,2.266,2.266,0,0,0,.03-.436c0-.01,0-.02,0-.029a.1.1,0,0,0-.046-.056q-.126-.6-.252-1.176c0-.056-.008-.11-.012-.165,0-.028-.043-.025-.043-.026a11.011,11.011,0,0,1-.2-1.39c0-.026,0-.052-.006-.079.187.305.194.705.419.966q-.008-.121-.017-.242c-.041-.59-.225-1.155-.261-1.687l.042,0c0-.041-.006-.084-.008-.126q-.346-1.32-.673-2.514l.041,0,.071.156-.007-.114c-.071-.279-.142-.553-.211-.823.01-.2-.122-.346-.173-.538a3.473,3.473,0,0,1-.185-.822c-.192-.576-.38-1.111-.585-1.629a1.408,1.408,0,0,0-.046-.135q-.4-.941-.777-1.814a.912.912,0,0,0-.193-.3c-.043-.069-.149-.224-.149-.224l-.083,0c-.318-.427-1.062-.172-1.315-.375-.085-.085.037-.3-.109-.344-.1.055-.039.174-.143.23a.21.21,0,0,0-.043-.1s.02-.053,0-.053c-.107-.222-.585-.121-.711-.2l-.02.07-.292.007c0-.052-.084-.033-.105-.032a.766.766,0,0,0-.375.1h-.02c-.042,0-.106-.05-.147-.049a.16.16,0,0,0-.144.162,1.96,1.96,0,0,0-.034.41,2.468,2.468,0,0,0,.013.56.7.7,0,0,0-.075.334c-.045.834-.081,1.7-.109,2.619,0,.02,0,.041,0,.061-.13,2.3-.2,4.884-.226,7.815a9.65,9.65,0,0,1-.023,1.105c-.006.209,0,1.106.008,1.219Zm3.755-4.5c-.229-.015-.346.09-.552.1l-.062,0c-.083,0-.332-.013-.332-.013-.008-.108-.015-.215-.022-.322.034-1.568.087-3.016.159-4.36.008.021.016.041.024.061s.224.758.325,1.067a2.177,2.177,0,0,0,.081.351c.261.958.53,1.969.809,3.044q.006.088.012.175l-.042,0a1.892,1.892,0,0,0-.4-.109Zm-1.593-1.6.057-.073.043.021-.039.049a1.879,1.879,0,0,1-.027.547c-.012-.183-.024-.365-.034-.544Zm4.344,1.907c.1-.006.1.2.1.253s.007.1.011.156c-.107-.048-.1-.307-.111-.409Zm-4.337-1.145c.007.1.013.193.019.29-.013.017-.025.034-.038.05l-.008-.121a.367.367,0,0,1,.027-.219Zm4.265-1.29a.356.356,0,0,0,.052.186c0-.031,0-.063-.006-.094a.242.242,0,0,0-.051-.161c0,.024,0,.047,0,.07Zm-.248,1.342c0-.025.061-.028.061-.028,0,.074.009.148.014.223a.175.175,0,0,1-.027-.1.385.385,0,0,0-.048-.1Zm-3.958-1.423a.122.122,0,0,1,.01.162c-.019.024-.032-.184-.01-.162Zm-.179,5.87c.042,0,.052.138.012.166-.021,0-.035-.193-.012-.166Zm1.277-12.877c.042,0,.043.069,0,.07a.035.035,0,0,1,0-.07Zm-1.981,13.991c.041,0,.05.113.008.112s-.05-.113-.008-.112Zm5.2,1.921c-.042,0-.033.125.009.124s.032-.125-.009-.124Zm.017-5.635c.041,0,.046.078.006.079s-.047-.077-.006-.079Zm-4.356-4.42a.034.034,0,0,1,0,.067.033.033,0,0,1-.033-.034.034.034,0,0,1,.029-.033Zm-.1,3.655,0-.05.034-.1c0,.049.007.1.011.149Zm4.515,5.447c.041,0,.048.09.006.091s-.048-.09-.006-.091Zm-4.494-6.067h.042l.006.1-.041,0-.007-.1Zm4.546-.388c.042,0,.047.072.005.074s-.046-.072,0-.075Zm-4.407,3.284c.042,0,.048.08.006.081s-.047-.08-.006-.081Zm4.682-.778c-.041,0-.035.082.006.081s.035-.083-.006-.081Zm-4.873.118c.041,0,.047.078.007.106-.02,0-.03-.131-.007-.106Zm.434-9.921c.042,0,.043.072,0,.074-.021,0-.023-.073,0-.074Zm4.417,10.077c-.02,0-.012.11.008.109.041,0,.033-.111-.008-.109Zm-1.037-4.068c.042,0,.047.092.006.094-.021,0-.027-.093-.006-.094Zm-3.29,6.274c.041,0,.049.113.008.113-.021,0-.029-.113-.008-.113Zm3.861-4.142.041,0c0,.034.005.068.007.1a.113.113,0,0,1-.048-.1Zm.525,3.59a.054.054,0,0,1,.037-.059c0,.048.008.1.011.144a.436.436,0,0,1-.048-.085Zm-4.953-.387h.042c0,.037.006.073.007.109l-.045-.054c0-.019,0-.036,0-.054Zm3.7-7.734c.02,0,.024.063,0,.064a.032.032,0,0,1,0-.064Zm.993,3.91c.021,0,.026.074.005.075-.042,0-.047-.073-.005-.075Zm-5.758-6.813c.021,0,.023.057,0,.057a.03.03,0,0,1-.032-.025.029.029,0,0,1,.025-.032Zm-.4,11.268c.021,0,.027.082.006.082-.042,0-.048-.083-.006-.082Zm6.325-2.357c-.021,0-.015.082.006.081.041,0,.035-.083-.006-.081Zm-.377-3.5c-.021-.023-.012.143.008.118s.013-.12-.008-.118Zm-4.374,1.791.008.124H636.2a.215.215,0,0,1,.012-.124Zm3.933-1.239a.083.083,0,0,1,.007.1c-.019.025-.027-.1-.007-.1Zm-5.786-1.232.041,0c0,.015,0,.03,0,.045l-.041,0c0-.015,0-.031,0-.046Zm6.025,2.055c.021,0,.026.073.007.1-.021,0-.029-.124-.007-.1Zm-3.516-3.461c.022.021.025.086.005.087s-.025-.085-.005-.087Zm-.722,9.018c.043.03.045.058,0,.057-.019.028-.025-.057,0-.057Zm-.016-.764c.043.029.045.056,0,.056-.019.029-.025-.056,0-.056Zm4.309-4.569c.02,0,.024.049.005.076-.021,0-.027-.1-.005-.076Zm.056.225,0-.051a.109.109,0,0,1,.025.075l0,.05a.111.111,0,0,1-.026-.075Zm-6.076-4.385c0,.014,0,.028,0,.042-.042,0-.044-.04,0-.042Zm1.876.615h.021l0,.043h-.02c0-.014,0-.029,0-.043Zm4.535,3.525,0,.05-.019.026,0-.024c0-.026,0-.05.018-.051Zm-.414,2.382.041,0,0,.028h-.041c0-.009,0-.018,0-.027Zm-4.133-3.947.044.045h-.041c0-.015,0-.03,0-.046Zm1.488-.721.042,0v.023l-.041,0,0-.023Zm2.632.085c-.021,0-.018.048,0,.046s.017-.047,0-.046Zm-.391.727c.02,0,.024.046,0,.047s-.024-.046,0-.047Zm.364,2.707c.02,0,.024.051,0,.052s-.024-.051,0-.052Zm.078-3.275c-.021,0-.018.047,0,.047s.018-.047,0-.047Zm-.343.825c0,.024,0,.048,0,.072-.019.025-.027-.095,0-.072Zm-5.815,1.889c.021,0,.022.024,0,.024-.042,0-.043-.024,0-.024Zm.068-6.376c.021.019.022.04,0,.04-.019.021-.022-.039,0-.04Zm1.764,9.162c.021,0,.022.027,0,.054-.02,0-.026-.081,0-.054Zm-.4,3.516c0,.029-.019.028-.021,0-.023-.031.039-.029.021,0Zm4.25-10.461c0,.015,0,.03,0,.044-.021,0-.023-.043,0-.044Zm9.852,9.085-.023-.029c-.012-.155.309-.554.266-.58l.021,0a.1.1,0,0,1,.045.057,1.514,1.514,0,0,0,.119-.347,2.8,2.8,0,0,0,.285-1.712c-.012-.153-.022-.3-.034-.454a.56.56,0,0,1-.035-.194c-.017-.224-.01-.42-.026-.64-.055-.767-.17-1.526-.179-2.287-.088-4.3,0-6.141.088-7.326a7.352,7.352,0,0,1,.284-1.844,2.172,2.172,0,0,0,.16-.453c0-.049-.021-.079-.123-.087-.027.012-.055.025-.081.038a.133.133,0,0,0-.083-.058l-.184.014-.061-.06a.256.256,0,0,0-.1.04c0-.016.021-.034.021-.05a.037.037,0,0,0-.042-.028l-.081.086L650,1145.4l-.041,0a.4.4,0,0,0-.041.083c-.061-.012-.061-.107-.061-.123a4,4,0,0,0-.348.265v-.033a.87.87,0,0,1,.122-.264l-.061,0c-.309.015-.407.965-.506,1.082q-.165.751-.318,1.566c0,.012,0,.024,0,.036a.354.354,0,0,1-.056.207c-.091.875-.17,1.81-.238,2.812.007.141.014.284.021.427.052,1-.025,1.828.053,3.05,0,.049.029.12.032.171a.3.3,0,0,1-.032.127,11.06,11.06,0,0,1-.585-1.432,15.487,15.487,0,0,1-.638-1.434l-.074-.236a1.308,1.308,0,0,0-.206-.418.022.022,0,0,0-.02.023c-.085-.012-.99-1.757-1.585-2.416-.15-.181-.3-.415-.471-.589a5.6,5.6,0,0,1-.651-.471l-.064-.086c-.021,0-.082.023-.1.024a.18.18,0,0,0,0,.018l-.106-.1a.318.318,0,0,1-.081.041l-.062,0a2.778,2.778,0,0,1-.09-.351c0,.018-.036.233-.1.236v-.018a2.244,2.244,0,0,0-.089-.314,4.42,4.42,0,0,0-1.3-.227c-.083.005-.123.059-.185.062-.124.006-.126-.1-.229-.093-.166.007-.179.446-.175.663q.017.8.047,1.659c.078,2.249.037,4.792.249,7.818q.03.439.063.89a33.912,33.912,0,0,0,.5,3.607l.051.121c0,.031.023.03.025.06.2.453.427.982.8.968.143-.038.334-.235.478-.243h.021c0,.032.108.058.108.058l.041,0c.039-.033.174-.166.215-.168l.052-.129c.018-.032.183-.04.2-.073,0-.052.006-.1.009-.157l.124-.007a3.839,3.839,0,0,0,.067-.47l.062,0a1.082,1.082,0,0,1,.126.023l.062,0a4.743,4.743,0,0,0,.064-.527q-.033-.426-.064-.841l.036-.062c-.011-.158-.024-.314-.035-.471a.056.056,0,0,1,.036-.061s.064.025.066.055q-.036-.481-.071-.95c-.148-2.013-.228-3.806-.281-5.434.012-.143-.02-.713-.006-.847.532,1.042,1.054,2.139,1.669,3.28.9,1.666,1.874,3.4,2.755,5.45l.236.383.018-.033c.02,0,.031-.128.029-.159a.169.169,0,0,0,.169.047c.123-.012.026-.19.109-.2h.021a.057.057,0,0,0,.046.057c0,.031.023.029.023.029Zm-.377-15.518a.373.373,0,0,1-.1.22c0-.033,0-.065,0-.1,0-.049-.021-.113.1-.122Zm.022,15.739c-.021,0-.039.035-.034.1a.059.059,0,0,0,.046.058c.021,0,.019-.033.016-.064,0-.062-.007-.094-.028-.091Zm-4.512-2.5,0-.028c.041,0,.045.054.049.112,0,.01,0,.019,0,.029-.041,0-.045-.055-.049-.112Zm3.083-4.747c.021,0,.023.022.024.047s0,.048-.017.05a.049.049,0,0,1-.045-.045.05.05,0,0,1,.038-.052Zm1.491,3.937a.088.088,0,0,1,.008.112.053.053,0,0,1-.046-.052.056.056,0,0,1,.037-.06Zm-5-10.208c.02,0,.021.017.021.035a.02.02,0,0,1-.02.02h0a.074.074,0,0,1-.042-.016.044.044,0,0,1,.04-.039Zm5.406-1.074c.021,0,.021.016.021.034a.019.019,0,0,1-.02.019h0a.075.075,0,0,1-.04-.015.044.044,0,0,1,.04-.037Zm-2.818,4.536c.021,0,.022.02.023.041s0,.043-.019.045-.022-.02-.023-.042,0-.043.019-.045Zm1.618-3.263a.058.058,0,0,1,.022.035l-.02.02a.078.078,0,0,1-.042-.015.044.044,0,0,1,.04-.04Zm-4.8,11.725c0,.029.023.028.025.057-.006.01-.013.02-.018.031a.073.073,0,0,1-.043-.027.055.055,0,0,1,.036-.061Zm-1.18-9.615c.02,0,.021.019.022.04a.021.021,0,0,1-.02.022.02.02,0,0,1-.021-.018h0c0-.021,0-.041.019-.042Zm.732,9.144.023.028-.019.03c-.02,0-.041,0-.043-.026a.023.023,0,0,1,.015-.029h.024Zm5.988-13.834.04,0-.04.051v-.048Zm-6.955,11.629.043.025-.041,0c0-.009,0-.018,0-.027Zm1.332,4.031.023.03h-.02c0-.01,0-.02,0-.03Zm8.181-1.6q.029.383.058.775a2.463,2.463,0,0,0,.45,1.56c0,.031.108.05.128.048.044.042.085.092.131.13a.273.273,0,0,0,.077.045.194.194,0,0,0,.045.009h.024l.026,0,.062-.008a.954.954,0,0,1,.134-.144,4.354,4.354,0,0,1,.566-.169.141.141,0,0,0,.016-.064c.106-.233.293-.227.343-.389.021,0-.048-.087-.05-.118.2-.027.068.084.15.073-.007-.092-.014-.184-.021-.276.021,0,.08-.042.077-.071l.021,0a.127.127,0,0,0-.025-.059s-.028-.088-.048-.086l.083-.01.064.022c.266-.035.277-.434.274-.733l.062-.008c-.026-.626.032-1.218.029-1.814-.013-.736,0-1.424.013-2.088.069-.193.834-.484.993-.579l.336-.217c0-.025,0-.051-.005-.076.02,0,.039-.03.06-.032.2-.123.139-.092.123-.319.021,0,.059-.057.06-.032a.582.582,0,0,1,.029.123c.051.139.388,1.406.424,1.6,0,.027.03.131.031.158q.213.932.431,1.917a7.129,7.129,0,0,1,.28,1.239,4.875,4.875,0,0,1,.292.852c0,.03.043.023.043.023.062-.01.141-.053.089-.2a.213.213,0,0,1,.072.139c.078.2.289.255.255.352.122-.021.17-.211.156-.389,0,.059.028.085.048.082a.085.085,0,0,0,.046.053c-.008-.109-.017-.218-.025-.326.022.027.109.072.127.039a1.035,1.035,0,0,0,.109-.2s.064.02.061-.01c.161-.057.125-.259.194-.446.052-.125.067.077.091-.16,0-.059.017-.323.011-.409.088.073.132-.165.126-.25-.024-.31-.126-.578-.151-.91l-.008-.11a.4.4,0,0,1,.146.286,2.21,2.21,0,0,0,.03-.422c0-.01,0-.019,0-.028a.086.086,0,0,0-.046-.049q-.124-.562-.247-1.108l-.012-.158c0-.026-.043-.021-.043-.021a10.061,10.061,0,0,1-.2-1.329c0-.026,0-.051-.005-.076.185.282.192.669.416.9q-.008-.117-.017-.233c-.04-.566-.222-1.1-.258-1.611l.042,0c0-.04-.006-.081-.009-.122q-.343-1.259-.672-2.413l.04,0,.071.15-.007-.112q-.107-.4-.213-.8c.01-.2-.122-.334-.174-.521a3.275,3.275,0,0,1-.187-.8c-.194-.557-.383-1.075-.589-1.574a1.078,1.078,0,0,0-.047-.129q-.4-.906-.778-1.734a.834.834,0,0,0-.192-.276c-.042-.065-.148-.208-.148-.208l-.081.008c-.315-.392-1.043-.106-1.292-.284-.083-.075.036-.283-.106-.318-.1.057-.039.167-.14.225a.179.179,0,0,0-.041-.094s.02-.052,0-.049c-.1-.2-.572-.079-.7-.149l-.02.067-.285.025c0-.049-.082-.025-.1-.023a.823.823,0,0,0-.366.112h-.021c-.041,0-.1-.039-.142-.036a.162.162,0,0,0-.142.158,1.7,1.7,0,0,0-.036.38,2.129,2.129,0,0,0,.008.521.649.649,0,0,0-.075.317c-.051.785-.093,1.617-.124,2.505,0,.019,0,.039,0,.059-.139,2.241-.215,4.843-.225,7.942a11.35,11.35,0,0,1-.017,1.176C652.011,1158.653,652.021,1159.614,652.031,1159.737Zm3.714-4.98c-.228,0-.344.111-.549.132l-.062.006c-.082.008-.33.008-.33.008-.007-.108-.014-.216-.022-.323.033-1.577.084-3.014.154-4.337l.024.061c.021.016.224.737.324,1.038a2.05,2.05,0,0,0,.081.344q.391,1.4.808,2.978c0,.057.007.116.012.173l-.042,0a1.845,1.845,0,0,0-.4-.084Zm-1.587-1.522.057-.076.043.019-.038.05a1.929,1.929,0,0,1-.027.551c-.012-.184-.024-.365-.034-.545Zm4.322,1.651c.1-.012.1.19.1.24s.006.1.01.15c-.106-.039-.1-.291-.11-.39Zm-4.315-.885c.006.1.012.193.019.291l-.038.053-.008-.122a.379.379,0,0,1,.027-.222Zm4.241-1.478a.336.336,0,0,0,.052.179c0-.031,0-.061-.005-.092a.233.233,0,0,0-.052-.155c0,.023,0,.045,0,.068Zm-.245,1.319c0-.024.06-.03.06-.03l.015.216a.158.158,0,0,1-.027-.094.358.358,0,0,0-.048-.091Zm-3.937-1.217a.12.12,0,0,1,.01.16c-.019.025-.032-.181-.01-.16Zm-.168,5.983c.04,0,.052.137.012.171-.02,0-.035-.2-.012-.171Zm1.248-12.862c.041,0,.042.063,0,.067s-.042-.064,0-.067Zm-1.94,14.109c.041-.005.049.113.008.118s-.049-.113-.008-.118Zm5.14,1.226c-.041.008-.032.126.009.12s.032-.127-.009-.12Zm.028-5.466c.041-.005.047.071.006.076s-.046-.072-.006-.076Zm-4.333-4.134a.033.033,0,1,1-.031.035.034.034,0,0,1,.031-.035Zm-.1,3.669,0-.05.034-.1c0,.05.006.1.01.151l-.042,0Zm4.48,4.994c.041-.006.047.081.007.088s-.048-.081-.007-.088Zm-4.46-5.624.042,0,.007.1-.042,0-.007-.1Zm4.523-.634c.04-.005.046.067,0,.072s-.045-.068,0-.072Zm-4.379,3.575c.04,0,.047.077.006.082s-.047-.077-.006-.082Zm4.649-1.17c-.041.005-.035.083.006.078s.035-.084-.006-.078Zm-4.842.51c.041,0,.046.076.008.107-.021,0-.031-.131-.008-.107Zm.426-9.863c.041,0,.043.067,0,.071-.021,0-.022-.069,0-.071Zm4.395,9.619c-.021,0-.013.107.008.1.041-.006.033-.11-.008-.1Zm-1.03-3.889c.041,0,.047.088.006.093-.02,0-.026-.09-.006-.093Zm-3.264,6.509c.04-.005.049.11.008.115-.021,0-.029-.113-.008-.115Zm3.833-4.461.041,0c0,.033.005.066.007.1a.1.1,0,0,1-.048-.094Zm.516,3.43a.058.058,0,0,1,.037-.061c0,.046.007.091.011.137a.372.372,0,0,1-.048-.076Zm-4.913.122.041,0,.008.112-.045-.052c0-.018,0-.038,0-.056Zm3.669-7.941c.021,0,.024.062,0,.063a.031.031,0,0,1-.032-.03.032.032,0,0,1,.029-.033Zm1,3.77c.021,0,.025.071,0,.072-.041,0-.046-.068,0-.072Zm-5.716-6.42c.021,0,.022.053,0,.055a.028.028,0,0,1-.031-.024.027.027,0,0,1,.024-.031Zm-.4,11.412c.021,0,.028.085.007.087-.041,0-.048-.082-.007-.087Zm6.275-2.973c-.02,0-.014.079.006.077.04,0,.035-.082-.006-.077Zm-.375-3.372c-.022-.021-.011.141.008.115s.013-.117-.008-.115Zm-4.349,2,.008.125-.021,0a.217.217,0,0,1,.013-.127Zm3.911-1.439a.079.079,0,0,1,.006.094c-.019.026-.026-.092-.006-.094Zm-5.756-.968.042,0c0,.016,0,.031,0,.046l-.042,0c0-.016,0-.031,0-.046Zm5.994,1.758c.02,0,.025.07.007.1-.021,0-.029-.119-.007-.1Zm-3.5-3.248c.022.019.025.083.005.085s-.025-.084-.005-.085Zm-.7,9.19c.044.025.046.054,0,.06-.018.032-.025-.057,0-.06Zm-.018-.794c.043.024.045.053,0,.058-.018.031-.025-.056,0-.058Zm4.276-4.934c.021,0,.024.047.005.073-.02,0-.028-.095-.005-.073Zm.056.215,0-.049a.1.1,0,0,1,.026.071l0,.049a.1.1,0,0,1-.026-.072Zm-6.042-4.062,0,.042c-.04,0-.043-.038,0-.042Zm1.861.542.021,0c0,.015,0,.029,0,.043l-.02,0c0-.014,0-.029,0-.043Zm4.514,3.263,0,.048-.019.026,0-.024c0-.025,0-.049.017-.051Zm-.414,2.339.041-.005c0,.009,0,.018,0,.026l-.041.005,0-.026Zm-4.11-3.655.043.043-.041,0c0-.016,0-.031,0-.047Zm1.479-.779.042,0c0,.008,0,.015,0,.023l-.041,0,0-.023Zm2.618-.025c-.02,0-.017.047,0,.045s.018-.046,0-.045Zm-.387.726c.021,0,.024.044,0,.046s-.024-.044,0-.046Zm.362,2.618c.021,0,.024.048,0,.051s-.024-.049,0-.051Zm.076-3.191c-.021,0-.018.048,0,.045s.017-.047,0-.045Zm-.34.82c0,.023,0,.046,0,.07-.019.026-.026-.091,0-.07Zm-5.782,2.21a.013.013,0,0,1,.016.01.013.013,0,0,1-.01.016h0c-.041,0-.043-.022,0-.026Zm.076-6.392c.021.017.022.037,0,.039-.02.021-.022-.037,0-.039Zm1.752,9.131c.02,0,.022.026,0,.056-.02,0-.026-.081,0-.056Zm-.38,3.733c0,.031-.018.034-.021,0-.023-.028.039-.036.021,0Zm4.2-10.893c0,.014,0,.028,0,.043-.02,0-.023-.041,0-.043Zm9.752,7.621-.022-.021c-.01-.128.313-.5.271-.519l.021,0a.068.068,0,0,1,.044.042,1.323,1.323,0,0,0,.122-.3,2.18,2.18,0,0,0,.3-1.469c-.009-.128-.019-.255-.028-.382a.387.387,0,0,1-.033-.163c-.014-.19-.006-.358-.02-.546-.048-.656-.158-1.313-.165-1.994-.138-7.589.045-8.328.194-9.12a2.632,2.632,0,0,0,.134-.523c0-.055-.025-.088-.127-.091l-.079.049a.131.131,0,0,0-.084-.061l-.181.029-.064-.063a.254.254,0,0,0-.1.052c0-.019.019-.04.018-.057a.037.037,0,0,0-.042-.031c-.025.035-.051.068-.075.1l-.063-.046-.04.007a.489.489,0,0,0-.035.1c-.062-.008-.067-.116-.067-.134,0,0-.311.284-.329.322l0-.036a1.13,1.13,0,0,1,.107-.306l-.06.009c-.3.044-.352,1.1-.447,1.232q-.13.829-.256,1.687c0,.012,0,.025,0,.038a.392.392,0,0,1-.049.217c-.064.914-.124,1.859-.178,2.84q.013.207.027.415c.062.961-.009,1.75.069,2.869,0,.045.028.109.031.155a.261.261,0,0,1-.033.118,9.009,9.009,0,0,1-.585-1.3,13.157,13.157,0,0,1-.644-1.336l-.076-.225a1.231,1.231,0,0,0-.21-.4.021.021,0,0,0-.019.023c-.084,0-1.008-1.688-1.613-2.337-.152-.176-.307-.407-.479-.576a5.387,5.387,0,0,1-.654-.448l-.065-.085c-.02,0-.081.028-.1.03v.018l-.106-.1a.365.365,0,0,1-.08.045l-.061.007a2.733,2.733,0,0,1-.1-.351c0,.018-.031.237-.092.245v-.018a2.318,2.318,0,0,0-.094-.314,4.169,4.169,0,0,0-1.291-.159c-.082.009-.12.066-.181.072-.121.014-.125-.091-.227-.08-.163.016-.168.455-.16.671q.029.794.068,1.644c.1,2.218.073,4.7.277,7.57q.029.416.06.843a29.324,29.324,0,0,0,.478,3.359l.049.106c0,.028.022.025.025.054.2.4.417.859.784.789.14-.056.331-.267.474-.294l.021,0c0,.028.106.038.106.038l.041-.008a1.165,1.165,0,0,1,.213-.185l.052-.125c.019-.032.182-.064.2-.095l.009-.144.123-.023a3.729,3.729,0,0,0,.07-.436l.061-.011c.042,0,.083,0,.125.005l.06-.012a4,4,0,0,0,.067-.483l-.057-.754.036-.061c-.01-.142-.021-.283-.031-.424a.058.058,0,0,1,.037-.059s.063.016.065.043q-.033-.434-.064-.859c-.135-1.825-.211-3.495-.27-5.047.011-.137-.023-.682-.01-.811.535.983,1.057,2,1.666,3.008.889,1.476,1.845,2.931,2.691,4.551l.229.29.018-.03c.02,0,.033-.112.03-.138.045.043.106.029.167.016.122-.026.029-.162.111-.179l.02,0a.044.044,0,0,0,.044.043h0a.018.018,0,0,0,.016.021Zm-.5-14.58a.448.448,0,0,1-.089.25c0-.036,0-.072-.006-.109,0-.055-.026-.124.095-.141Zm.14,14.813c-.02,0-.038.034-.035.086a.044.044,0,0,0,.045.043h0c.02,0,.018-.031.016-.056,0-.051-.005-.077-.026-.072Zm-4.447-1.679,0-.026c.041-.006.045.046.049.1v.026c-.04.007-.044-.045-.048-.1Zm3.083-4.555c.021,0,.023.02.024.042s0,.045-.017.047a.043.043,0,0,1-.044-.04.049.049,0,0,1,.037-.05Zm1.464,3.412a.076.076,0,0,1,.024.045.108.108,0,0,1-.017.052.044.044,0,0,1-.044-.042.054.054,0,0,1,.037-.055Zm-5.026-9.374c.02,0,.021.016.022.035a.021.021,0,0,1-.02.021h0a.068.068,0,0,1-.042-.014.045.045,0,0,1,.039-.042Zm5.319-1.393c.02,0,.021.016.023.035a.021.021,0,0,1-.019.022.068.068,0,0,1-.042-.013.049.049,0,0,1,.039-.043Zm-2.693,4.735c.021,0,.022.018.024.04s0,.042-.018.043-.022-.019-.023-.039,0-.042.017-.044Zm1.546-3.33a.064.064,0,0,1,.023.036l-.02.022a.066.066,0,0,1-.042-.015.047.047,0,0,1,.038-.043Zm-4.72,11.439c0,.027.023.024.025.05-.006.011-.012.02-.019.03a.064.064,0,0,1-.043-.02.06.06,0,0,1,.036-.06Zm-1.18-9.077c.02,0,.021.018.022.038a.021.021,0,0,1-.02.022.018.018,0,0,1-.021-.016v0c0-.02,0-.039.018-.042Zm.737,8.686.023.024-.018.03c-.021,0-.041.006-.043-.02a.025.025,0,0,1,.019-.03h0l.02,0Zm5.787-13.863.04-.006-.038.061c0-.018,0-.036,0-.055Zm-6.738,11.874.043.021-.041.005,0-.026Zm1.3,3.639.022.024-.021,0Zm7.767-7.184c.111,1.575.372,3.7,1.438,4.957.094.146.263.2.377.344a.056.056,0,0,1,.043.014c.131.089.454.273.454.272.02,0,.389-.047.533-.059l.061-.016c.1-.024.587-.167.686-.215.294-.209.685-.238.959-.44.313-.234.6-.5.937-.731a.344.344,0,0,0,.078-.062,2.516,2.516,0,0,0,.156-.954l-.163.035-.041-.546c-.043-.034-.053-.16-.059-.244-.1.02-.214.191-.275.2l-.021-.017a.164.164,0,0,1-.063-.009.145.145,0,0,1-.065-.03l-.1.063-.061.012c-.005-.064.012-.11.009-.153-.367.071-.377-.079-.54-.049l-.021,0,0,.021c-.034.093-.163.315-.264.334l-.02,0a.956.956,0,0,0-.051-.122l-.041.008a.329.329,0,0,0-.079.059l0-.044.033-.115-.005-.065-.041.007a.21.21,0,0,1-.056.076.082.082,0,0,1-.066-.054,20.033,20.033,0,0,1-.514-2.2.064.064,0,0,0-.036.069,10.61,10.61,0,0,0,.5,2.274l0,.043a.1.1,0,0,0-.038.052c-.154-.126-.2-.406-.25-.594l-.238-.968c-.031-.148-.123-.829-.133-.977a10.785,10.785,0,0,1-.085-1.167.309.309,0,0,1-.055-.184,5.268,5.268,0,0,1,.04-.872c-.078-.515.111-1.04.072-1.573-.005-.082-.046-.077-.053-.179l.061-.007a1.971,1.971,0,0,1,.024-.23c0-.041-.005-.082-.009-.123l-.08.031c0-.007,0-.014,0-.02-.007-.1.028-.189.021-.291l-.021,0c-.033-.468.282-.958.25-1.4,0-.006,0-.013,0-.02-.1.054-.09.175-.106.238,0-.02,0-.04,0-.06l-.04,0a1.946,1.946,0,0,0-.218.4c-.016.063-.012.124-.05.17l-.023-.038a.021.021,0,0,1,.019-.023,6.241,6.241,0,0,1,1.131-2.27l.02,0c.06-.01.081-.013.124.022a1.111,1.111,0,0,1,.066.356,3.18,3.18,0,0,1-.162,1.166l0,.04.077-.072c0,.014,0,.027,0,.04.026.365-.442,1-.427,1.2a.2.2,0,0,0,.024.058l.024.038a.7.7,0,0,1,.1.213l.081-.01.015.2c.019-.024.078-.052.077-.072l.04-.005c0,.02.047.076.049.1l.264-.035c.021,0,.115-.118.155-.144.2-.109.446-.08.656-.295.134-.141.14-.328.314-.476l.017-.044a3.474,3.474,0,0,0,.365-1.979,1.33,1.33,0,0,0-1.1-1.287c-.348-.022-.669.052-.978,0-.082-.006-.168-.073-.249-.059l-.077.053s-.2-.006-.224,0a.923.923,0,0,0-.1,0,2.327,2.327,0,0,0-1.316,1.058q-.29.4-.582.793c-.206.6-.577,1.187-.761,1.814-.084.292-.018.669-.184.956l-.043-.036a.322.322,0,0,1-.02.31c0,.014,0,.028,0,.041s-.014.1-.013.125a.175.175,0,0,0-.058.048c0,.228.044.347-.066.547a.079.079,0,0,0-.016.065l.041-.005c.01.145-.08.344-.068.532l0,.021.044.037,0,.021c.02.293-.076.688-.054,1.009l.041-.005a1.519,1.519,0,0,1-.055.4c.016.229.033.461.049.692Zm.23-4.128c-.04,0-.034.106.007.1s.034-.106-.007-.1Zm3.055-4.471c-.04.007-.034.086.005.079.061-.01.055-.089-.005-.079Zm-1.648,8.988.061-.008c0,.021,0,.043,0,.065l-.061.009,0-.065Zm1.484-.881c-.02,0-.013.108.008.106.041-.006.033-.112-.007-.106Zm-.066-3.783c-.041.005-.035.087.006.081.02,0,.014-.084-.006-.081Zm.984,6.708c-.02,0-.014.09.007.086.041-.008.034-.094-.007-.086Zm-1.879,2.789.061-.013.005.069a.078.078,0,0,1-.066-.056Zm.978-5.481c.006.085.012.17.018.256a.544.544,0,0,0-.018-.256Zm.774-5.522c-.02,0-.016.063,0,.061a.031.031,0,0,0,.028-.033.03.03,0,0,0-.033-.028Zm-3.615,1.423c-.022-.018-.06.027-.038.045s.06-.028.038-.045Zm2.8,3.486c-.021,0-.016.067,0,.064.041-.006.036-.069,0-.064Zm.071.975c-.02,0-.016.067,0,.064.041-.006.036-.07,0-.064Zm-1.816-3.793c.041-.006.044.036,0,.061-.019.023-.026-.079,0-.061Zm1.625-1.74c.02,0,.024.058.005.081-.02,0-.027-.1-.005-.081Zm.925-.248-.035.087c.012-.016.025-.031.038-.046l0-.041Zm-.528-2.855c0-.02-.041-.013-.02,0,0,.02.022.016.02,0Zm-.413,4.641c.02,0,.022.018,0,.021s-.022-.038,0-.021Z" transform="translate(-17.531 -12.828)"/></g></svg>