<svg xmlns="http://www.w3.org/2000/svg" xmlns:xlink="http://www.w3.org/1999/xlink" version="1.1" x="0px" y="0px" viewBox="0 0 100 97" style="enable-background:new 0 0 100 97;" xml:space="preserve">
<g id="Layer_1" style="display:none;">
	<path style="display:inline;fill:#fcbc06;" d="M99.5,48.5C99.5,75.3,77.4,97,50,97C22.6,97,0.5,75.3,0.5,48.5C0.5,21.7,22.6,0,50,0   C77.4,0,99.5,21.7,99.5,48.5z"/>
	<path style="display:inline;fill-rule:evenodd;clip-rule:evenodd;fill:none;" d="M50,0C22.6,0,0.5,21.7,0.5,48.5   C0.5,75.3,22.6,97,50,97c27.3,0,49.5-21.7,49.5-48.5C99.5,21.7,77.4,0,50,0z"/>
	<rect x="37.2" y="30.6" style="fill:#FFFFFF;" width="24.8" height="39"/>
	<path style="display:inline;fill-rule:evenodd;clip-rule:evenodd;fill:#FFFFFF;" d="M55.8,29.5h9.7V18h-9.7   c-7.5,0-13.6,6-13.6,13.3v5.7h-7.8v11.4h7.8V79h11.7V48.5h9.7l1.9-11.4H53.9v-5.7C53.9,30.3,54.8,29.5,55.8,29.5"/>
</g>
<g id="Layer_2_copy">
	<path style="fill:#fcbc06;" d="M99.5,48.5C99.5,75.3,77.4,97,50,97C22.6,97,0.5,75.3,0.5,48.5C0.5,21.7,22.6,0,50,0   C77.4,0,99.5,21.7,99.5,48.5z"/>
	<path style="fill-rule:evenodd;clip-rule:evenodd;fill:#FFFFFF;" d="M51.1,26.7c7.2,0,8,0,10.9,0.2c2.6,0.1,4,0.5,5,0.9   c1.3,0.5,2.2,1,3.1,1.9c0.9,0.9,1.5,1.8,2,3c0.4,0.9,0.8,2.3,0.9,4.8c0.1,2.7,0.2,3.6,0.2,10.5c0,6.9,0,7.8-0.2,10.5   c-0.1,2.5-0.6,3.9-0.9,4.8c-0.5,1.2-1.1,2.1-2,3c-0.9,0.9-1.8,1.5-3.1,1.9c-0.9,0.4-2.4,0.8-5,0.9c-2.8,0.1-3.7,0.2-10.9,0.2   c-7.2,0-8,0-10.9-0.2c-2.6-0.1-4-0.5-5-0.9c-1.2-0.5-2.2-1-3.1-1.9c-0.9-0.9-1.5-1.8-2-3c-0.4-0.9-0.8-2.3-0.9-4.8   c-0.1-2.7-0.2-3.6-0.2-10.5c0-6.9,0-7.8,0.2-10.5c0.1-2.5,0.6-3.9,0.9-4.8c0.5-1.2,1.1-2.1,2-3c0.9-0.9,1.8-1.5,3.1-2   c0.9-0.4,2.4-0.8,5-0.9C43.1,26.7,43.9,26.7,51.1,26.7z M51.1,22c-7.3,0-8.2,0-11.1,0.2c-2.9,0.1-4.8,0.6-6.5,1.2   c-1.8,0.7-3.3,1.6-4.8,3c-1.5,1.4-2.4,2.9-3.1,4.6c-0.7,1.7-1.1,3.5-1.3,6.3c-0.1,2.8-0.2,3.7-0.2,10.7c0,7.1,0,7.9,0.2,10.7   c0.1,2.8,0.6,4.7,1.3,6.3c0.7,1.7,1.6,3.2,3.1,4.6c1.5,1.4,3,2.3,4.8,3c1.7,0.6,3.7,1.1,6.5,1.2C42.9,74,43.8,74,51.1,74   c7.3,0,8.2,0,11.1-0.2c2.9-0.1,4.8-0.6,6.5-1.2c1.8-0.7,3.3-1.6,4.8-3c1.5-1.4,2.4-2.9,3.1-4.6c0.7-1.7,1.1-3.5,1.3-6.3   C78,56,78,55.1,78,48c0-7.1,0-7.9-0.2-10.7c-0.1-2.8-0.6-4.7-1.3-6.3c-0.7-1.7-1.6-3.2-3.1-4.6c-1.5-1.4-3-2.3-4.8-3   c-1.7-0.6-3.7-1.1-6.5-1.2C59.3,22,58.4,22,51.1,22L51.1,22z"/>
	<path style="fill-rule:evenodd;clip-rule:evenodd;fill:#FFFFFF;" d="M52,34.6c-7.4,0-13.4,6-13.4,13.5c0,7.4,6,13.4,13.4,13.4   c7.4,0,13.5-6,13.5-13.4C65.4,40.6,59.4,34.6,52,34.6 M52,56.7c-4.8,0-8.7-3.9-8.7-8.7c0-4.8,3.9-8.7,8.7-8.7   c4.8,0,8.7,3.9,8.7,8.7C60.7,52.8,56.8,56.7,52,56.7"/>
</g>
<g id="Layer_2_copy_2" style="display:none;">
	<path style="display:inline;fill:#fcbc06;" d="M99.5,48.5C99.5,75.3,77.4,97,50,97C22.6,97,0.5,75.3,0.5,48.5C0.5,21.7,22.6,0,50,0   C77.4,0,99.5,21.7,99.5,48.5z"/>
	<path style="display:inline;fill-rule:evenodd;clip-rule:evenodd;fill:#FFFFFF;" d="M84,29.3c-2.4,1-4.9,1.7-7.6,2   c2.7-1.6,4.8-4.2,5.8-7.2c-2.6,1.5-5.4,2.6-8.4,3.2c-2.4-2.5-5.9-4.1-9.7-4.1c-7.3,0-13.2,5.8-13.2,13c0,1,0.1,2,0.3,3   c-11-0.5-20.7-5.7-27.3-13.6c-1.1,1.9-1.8,4.2-1.8,6.5c0,4.5,2.3,8.5,5.9,10.8c-2.2-0.1-4.2-0.7-6-1.6v0.2   c0,6.3,4.6,11.6,10.6,12.8c-1.1,0.3-2.3,0.5-3.5,0.5c-0.9,0-1.7-0.1-2.5-0.2c1.7,5.2,6.6,8.9,12.4,9.1c-4.5,3.5-10.2,5.6-16.4,5.6   c-1.1,0-2.1-0.1-3.2-0.2c5.9,3.7,12.8,5.9,20.3,5.9c24.3,0,37.6-19.9,37.6-37.1c0-0.6,0-1.1,0-1.7C80,34.2,82.2,31.9,84,29.3   L84,29.3z"/>
</g>
<g id="Layer_2" style="display:none;">
	<path style="display:inline;fill:#fcbc06;" d="M99.5,48.5C99.5,75.3,77.4,97,50,97C22.6,97,0.5,75.3,0.5,48.5C0.5,21.7,22.6,0,50,0   C77.4,0,99.5,21.7,99.5,48.5z"/>
	<path style="display:inline;fill-rule:evenodd;clip-rule:evenodd;fill:#FFFFFF;" d="M80,68.9H66.6v-17c0-4.5-1.5-7.6-5.7-7.6   c-3.2,0-5,2.1-5.9,4.1c-0.3,0.7-0.3,1.7-0.3,2.7v17.8H43.1c0,0,0.1-30.6,0-33.5h11.5v5.7c1.5-2.3,5.1-5.5,11.2-5.5   c7.6,0,14.1,4.8,14.1,15.1V68.9z M31,32.4L31,32.4c-4,0-6.5-2.9-6.5-6.1c0-3.3,2.6-5.9,6.5-5.9c3.9,0,6.4,2.8,6.5,6   C37.5,29.6,35,32.4,31,32.4z M26.4,35.3h10.4v33.5H26.4V35.3z"/>
</g>
</svg>