<svg xmlns="http://www.w3.org/2000/svg" xmlns:xlink="http://www.w3.org/1999/xlink" version="1.1" id="Layer_1" x="0px"
    y="0px" viewBox="0 0 19 14" style="enable-background:new 0 0 19 14;" xml:space="preserve">
    <path style="fill-rule:evenodd;clip-rule:evenodd;fill:#fcbc06;"
        d="M0.7,11.9c0-0.4,2.3-0.6,6.9-0.5c2,0.1,5,0.2,9.1,0.3l0.3,0  c1.3,0.1,2,0.5,1.9,1.2c0,0.7-2.6,1-7.8,0.8c-3,0.1-5,0.1-6.1,0l-1.1-0.1c-2.2-0.1-3.3-0.6-3.3-1.5L0.7,11.9z M0.7,6.8  c0-0.7,1.1-1.1,3.4-1.1c6,0.2,9.5,0.3,10.5,0.3h0.1c1.2,0,2-0.1,2.4-0.2c1.2,0.1,1.9,0.4,1.9,1v0.7c0,0.6-3.1,0.8-9.4,0.8  c-5.8,0-8.7-0.3-8.7-1L0.7,6.8L0.7,6.8z M0.7,1.7c0.3-1,1.2-1.5,2.8-1.5h0.4l6.3,0.3h4c3.1,0,4.7,0.3,4.7,0.8c0,0.2,0,0.3,0.1,0.4  c0,0.8-1.9,1.2-5.6,1.2H12C6.2,2.8,2.4,2.5,0.7,1.7z" />
</svg>