<svg xmlns="http://www.w3.org/2000/svg" xmlns:xlink="http://www.w3.org/1999/xlink" version="1.1" id="Layer_1" x="0px" y="0px" viewBox="0 0 188 200" style="enable-background:new 0 0 188 200;" xml:space="preserve">
<style type="text/css">
	.st0{opacity:0.6621;enable-background:new    ;}
	.st1{opacity:0.4616;enable-background:new    ;}
	.st2{enable-background:new    ;}
	.st3{clip-path:url(#SVGID_2_);}
	.st4{fill:#9B9B9B;}
	.st5{clip-path:url(#SVGID_4_);}
	.st6{opacity:0.4616;fill:#9B9B9B;}
</style>
<g class="st0">
	<g>
		<g>
			<g class="st1">
				<g>
					<g>
						<g>
							<g class="st2">
								<g>
									<g>
										<defs>
											<path id="SVGID_1_" d="M149.6,32.4l-6.1-26.9c-0.5-2.4,1.1-4.8,3.3-5.4c2.3-0.7,4.7,1.1,5.4,3.3l9.1,40.3l0.1,0.2             l0.1,0.2l0.1,0.2c0,0,0.1,0.2,0,0.3l0,0.3l0,0.3l0,0.3c0,0-0.2,0.1,0,0.3c0,0,0,0.3-0.2,0.4c0,0-0.2,0.1,0,0.3l-0.2,0.1             c-0.2,0.1,0,0.3-0.2,0.4l-0.2,0.1l-0.2,0.1l-0.3,0.3l-0.2,0.1l-0.2,0.1l-0.3,0.3l-0.2,0.1l-0.2,0.1l-0.2,0.1l-0.2,0.1             l-0.2,0.1c0,0-0.2,0.1-0.3,0l-0.2,0.1c0,0-0.2,0.1-0.3,0l-0.2,0.1l-46.9,4.6c-1.6,0.1-2.9-0.5-3.9-1.7             c-0.5-0.7-0.8-1.4-1-2.3c-0.2-2.4,1.5-4.5,4.1-4.9l36.7-3.7c-17-13.9-38.9-20.7-61.2-18.4c-46.1,4.6-79.6,45.6-74.8,91.6             c2.3,22.3,12.9,42.4,30.4,56.5c17.3,14.2,39.2,20.7,61.3,18.6c45.9-4.4,79.4-45.5,74.8-91.6c-0.9-10.5-3.9-20.5-8.8-29.9             c-1.1-2.2-0.2-4.9,1.8-5.9c2.2-1.1,4.8-0.4,5.9,1.8c5.2,10.2,8.6,21.4,9.8,33c5.1,51-32.1,96.3-82.8,101.5             c-24.7,2.5-48.7-4.9-67.9-20.5c-5.4-4.4-10.2-9.4-14.4-14.8c-10.6-13.6-17.3-30-19-47.7c-5.1-50.7,32-96.2,83-101.3             C108.2,11.8,131.1,18.5,149.6,32.4"/>
										</defs>
										<clipPath id="SVGID_2_">
											<use xlink:href="#SVGID_1_" style="overflow:visible;"/>
										</clipPath>
										<g class="st3">
											
												<rect x="-32.2" y="-23.3" transform="matrix(0.788 -0.6157 0.6157 0.788 -40.8533 83.3035)" class="st4" width="265.6" height="248.5"/>
										</g>
									</g>
								</g>
							</g>
						</g>
					</g>
				</g>
			</g>
		</g>
		<g>
			<defs>
				<polygon id="SVGID_3_" points="37.8,111.8 145.7,71.4 77.3,158.8 73.9,121.1     "/>
			</defs>
			<clipPath id="SVGID_4_">
				<use xlink:href="#SVGID_3_" style="overflow:visible;"/>
			</clipPath>
			<g class="st5">
				<rect x="6" y="39.7" class="st6" width="171.4" height="150.8"/>
			</g>
		</g>
	</g>
</g>
<g>
</g>
<g>
</g>
<g>
</g>
<g>
</g>
<g>
</g>
<g>
</g>
<g>
</g>
<g>
</g>
<g>
</g>
<g>
</g>
<g>
</g>
<g>
</g>
<g>
</g>
<g>
</g>
<g>
</g>
</svg>