<?xml version="1.0" standalone="no"?>
<!DOCTYPE svg PUBLIC "-//W3C//DTD SVG 20010904//EN"
 "http://www.w3.org/TR/2001/REC-SVG-20010904/DTD/svg10.dtd">
<svg version="1.0" xmlns="http://www.w3.org/2000/svg"
 width="489.000000pt" height="489.000000pt" viewBox="0 0 489.000000 489.000000"
 preserveAspectRatio="xMidYMid meet">
<metadata>
Created by potrace 1.11, written by Peter Selinger 2001-2013
</metadata>
<g transform="translate(0.000000,489.000000) scale(0.100000,-0.100000)"
fill="#000000" stroke="none">
<path d="M2435 4753 c-178 -29 -283 -92 -393 -236 -48 -62 -48 -62 -187 -309
-20 -35 -54 -92 -76 -128 -93 -147 -187 -357 -239 -532 -28 -95 -59 -228 -65
-278 -2 -14 -4 -25 -5 -25 -7 0 -24 -286 -22 -385 1 -52 4 -257 6 -455 2 -198
7 -392 9 -432 7 -106 18 -216 22 -233 2 -8 7 -37 10 -65 2 -27 7 -66 10 -85 2
-19 7 -55 10 -80 3 -25 11 -72 16 -105 6 -33 13 -73 15 -90 2 -16 6 -45 9 -62
3 -18 7 -50 10 -70 3 -21 8 -49 11 -63 2 -14 6 -36 9 -50 3 -14 7 -45 10 -70
5 -37 28 -148 50 -233 25 -101 100 -261 159 -342 81 -109 189 -189 319 -235
95 -34 179 -45 332 -43 194 3 321 39 452 126 89 59 139 109 183 183 19 33 49
77 66 99 90 112 188 361 219 555 3 19 8 42 10 50 2 8 7 35 10 60 6 50 16 126
20 151 2 8 6 55 10 105 4 49 8 100 10 114 26 177 26 806 0 1065 -16 162 -19
224 -20 380 0 99 2 184 4 189 11 24 -6 533 -24 736 -8 86 -18 197 -21 215 -1
11 -3 26 -3 33 -1 6 -10 12 -21 12 -17 0 -19 -5 -15 -52 3 -29 7 -69 10 -88
17 -116 25 -284 30 -635 l4 -290 -20 95 c-11 52 -22 106 -24 120 -12 68 -72
307 -97 384 -11 34 -21 97 -24 141 -9 157 -17 212 -45 310 -41 139 -131 269
-239 345 -19 14 -53 41 -75 61 -62 56 -134 98 -206 120 -61 18 -168 29 -214
22z m193 -58 c70 -20 96 -40 37 -29 -65 12 -141 8 -238 -11 -99 -20 -248 -103
-347 -195 -69 -64 -73 -64 -31 -2 142 211 358 300 579 237z m67 -76 c50 -11
136 -49 165 -72 43 -34 100 -137 154 -277 21 -52 41 -104 46 -115 9 -22 54
-147 56 -155 0 -3 4 -12 7 -20 26 -63 54 -173 51 -201 -1 -19 -5 -71 -8 -116
-3 -45 -13 -130 -21 -189 -19 -132 -19 -124 4 -124 15 0 20 10 26 46 3 25 8
55 10 67 6 27 17 153 19 199 0 20 4 34 8 30 8 -8 62 -221 83 -325 8 -40 17
-83 19 -97 3 -13 8 -42 11 -65 3 -22 10 -65 16 -95 20 -114 24 -158 23 -260
-1 -105 -11 -308 -19 -365 -5 -39 -17 -176 -20 -240 -3 -53 -14 -164 -20 -205
-2 -14 -6 -54 -10 -90 -3 -36 -8 -85 -10 -110 -3 -25 -7 -70 -10 -100 -3 -30
-7 -71 -10 -90 -8 -63 -15 -124 -21 -180 -2 -30 -6 -68 -8 -85 -2 -16 -7 -59
-11 -95 -4 -36 -9 -74 -11 -85 -2 -11 -6 -47 -8 -80 -6 -70 -7 -78 -41 -295
-21 -136 -64 -276 -94 -306 -54 -54 -155 -113 -268 -156 -32 -12 -60 -23 -63
-23 -169 -32 -209 -37 -268 -32 -98 8 -120 14 -197 53 -167 85 -303 241 -424
484 -24 47 -47 93 -51 102 -38 72 -147 395 -165 488 -2 8 -8 33 -13 55 -6 22
-13 51 -16 65 -3 14 -10 50 -16 80 -6 30 -13 75 -16 100 -3 25 -7 56 -9 70 -4
25 -13 127 -20 205 -4 59 -16 176 -20 205 -33 225 -22 472 30 730 3 14 8 41
11 60 3 19 21 98 40 175 19 77 36 147 38 155 2 8 12 44 21 80 9 36 18 72 20
80 2 8 11 47 19 85 9 39 19 81 22 95 2 14 12 50 20 80 9 30 18 64 20 76 7 40
77 240 104 299 68 149 286 363 442 434 90 41 104 45 183 57 22 3 41 7 42 8 5
5 114 -5 158 -15z m360 -259 c39 -61 79 -155 90 -210 3 -14 7 -36 10 -50 3
-14 7 -47 10 -75 l6 -50 -16 40 c-9 22 -27 69 -40 105 -57 158 -77 209 -105
269 -37 79 -15 65 45 -29z m-1309 -448 c-8 -22 -17 -54 -19 -71 -3 -16 -7 -33
-10 -38 -4 -7 -70 -283 -82 -340 -1 -10 -10 -45 -20 -78 -9 -33 -18 -69 -21
-80 -2 -11 -17 -74 -33 -140 -17 -66 -33 -136 -36 -155 -4 -19 -8 -42 -10 -50
-2 -8 -6 -40 -10 -70 -4 -30 -11 -61 -15 -69 -8 -16 -5 166 5 264 10 107 16
160 19 175 1 8 6 38 11 65 4 28 10 54 13 60 3 5 7 18 8 30 3 29 5 35 52 174
23 69 44 131 45 136 3 9 20 47 87 188 27 57 36 57 16 -1z m1661 -1418 c18
-272 6 -813 -22 -1021 -9 -63 -19 -169 -20 -195 0 -16 -4 -28 -8 -28 -5 0 -6
-4 -3 -8 3 -4 0 -28 -5 -51 -5 -24 -11 -55 -14 -70 -9 -64 -48 -218 -65 -256
-10 -23 -23 -58 -24 -65 -4 -18 -70 -149 -73 -146 -2 2 1 24 7 47 7 24 14 55
16 69 8 56 13 88 24 155 6 39 13 84 14 100 2 17 7 55 10 85 4 30 9 71 11 90
12 120 16 158 20 180 3 14 7 57 10 95 4 39 8 81 10 95 2 14 7 50 10 80 3 30 7
71 10 90 5 41 12 109 20 200 3 36 8 81 10 100 17 154 18 157 31 330 3 52 8
106 9 120 2 14 3 47 4 74 2 82 11 46 18 -70z m-1867 -796 c9 -58 43 -221 56
-273 2 -5 5 -21 8 -35 11 -51 75 -248 110 -339 67 -173 173 -371 256 -476 93
-119 239 -237 328 -266 20 -6 42 -15 47 -19 23 -15 208 -20 296 -7 103 14 340
107 361 140 4 6 10 8 14 5 3 -4 -11 -24 -32 -44 -82 -77 -219 -156 -293 -169
-19 -3 -37 -8 -40 -10 -15 -9 -156 -20 -251 -19 -348 3 -569 167 -692 514 -11
30 -21 62 -23 70 -2 8 -10 42 -18 75 -14 55 -21 90 -32 170 -3 17 -7 41 -10
55 -8 39 -15 82 -20 120 -2 19 -6 44 -8 55 -4 19 -12 70 -23 155 -3 19 -9 58
-14 85 -5 28 -12 75 -15 105 -3 30 -10 79 -15 109 -11 61 -12 71 -6 71 2 0 9
-33 16 -72z"/>
<path d="M2153 3601 c-5 -3 -9 -77 -9 -163 l0 -156 28 -4 c40 -6 49 4 51 58
l2 48 41 3 c77 4 118 34 129 94 7 36 -15 85 -47 103 -28 17 -177 30 -195 17z
m155 -78 c26 -36 8 -64 -46 -70 l-41 -5 1 46 c0 33 5 46 17 49 27 6 55 -2 69
-20z"/>
<path d="M2663 3603 c-7 -3 -13 -11 -13 -19 0 -8 -9 -40 -21 -72 -11 -31 -22
-64 -24 -72 -1 -8 -12 -44 -24 -79 -12 -35 -21 -68 -21 -71 0 -22 84 -14 86 8
1 7 2 19 3 27 1 11 14 15 49 15 45 0 49 -2 63 -32 11 -26 20 -32 47 -32 19 -1
36 2 38 5 2 3 -20 77 -49 164 l-52 159 -35 1 c-19 1 -41 0 -47 -2z m67 -200
c0 -2 -11 -3 -25 -3 -24 0 -26 2 -19 38 10 57 16 59 30 11 8 -24 14 -45 14
-46z"/>
<path d="M2152 2930 c-4 -3 -8 -78 -8 -167 l0 -163 38 0 c41 0 40 -1 40 73 0
27 4 37 16 38 10 1 28 2 42 3 46 2 88 27 104 60 27 58 1 127 -56 145 -36 11
-165 20 -176 11z m151 -78 c36 -32 7 -79 -48 -78 -27 1 -30 4 -32 36 -1 19 -1
40 2 46 5 17 57 14 78 -4z"/>
<path d="M2666 2926 c-7 -6 -26 -51 -41 -101 -16 -49 -38 -120 -51 -157 l-23
-68 44 0 c40 0 44 2 50 30 4 17 10 30 13 31 37 6 92 5 93 -2 1 -5 3 -12 4 -16
2 -5 6 -17 9 -28 6 -17 14 -20 47 -17 25 3 39 9 36 16 -2 6 -26 79 -52 163
l-49 151 -34 4 c-18 2 -39 -1 -46 -6z m48 -148 c1 -13 6 -29 10 -36 4 -7 4
-12 -1 -13 -4 0 -16 -2 -25 -4 -21 -4 -24 19 -8 61 12 30 20 28 24 -8z"/>
<path d="M2151 2250 c-5 -4 -7 -274 -2 -315 1 -12 56 -14 67 -3 3 4 6 49 6
100 -1 105 -5 107 71 -25 39 -68 52 -83 70 -81 12 1 30 3 40 3 16 1 17 14 15
164 l-3 162 -33 1 c-18 0 -36 -4 -38 -8 -3 -5 -6 -47 -6 -94 0 -46 -2 -84 -4
-84 -2 0 -28 42 -58 93 -51 86 -57 93 -86 92 -18 0 -35 -2 -39 -5z"/>
<path d="M2752 2246 c-9 -15 -10 -299 -1 -311 7 -9 46 -12 69 -6 7 1 7 321 0
322 -31 6 -62 4 -68 -5z"/>
<path d="M2145 1415 l0 -165 38 0 c42 0 38 -12 39 144 l0 60 55 -95 c30 -52
60 -97 67 -101 6 -4 26 -8 44 -8 l32 0 0 166 0 165 -42 -3 -42 -3 1 -100 c0
-64 -2 -93 -8 -80 -5 11 -30 56 -57 100 -46 77 -49 80 -88 83 l-40 3 1 -166z"/>
<path d="M2748 1573 c-4 -7 -3 -261 1 -305 1 -14 10 -18 36 -18 19 0 36 3 36
8 4 22 5 299 1 310 -4 13 -68 17 -74 5z"/>
</g>
</svg>
